<svg width="1440" height="1269" viewBox="0 0 1440 1269" fill="none" xmlns="http://www.w3.org/2000/svg">
<path opacity="0.05" d="M1651 129.015V0H1460.8L765.513 554.447L1313.06 0H1229.79L765.999 529.596L1043.59 0H929.106L755.813 517.181L827.709 0H643.405L718.618 522.405L541.754 0H426.767L704.248 529.596L240.519 0H157.254L704.734 554.384L9.51062 0H-251V93.3984L691.314 569.696L-251 308.79V456.84L682.375 592.729H-251V651.589L682.375 611.891L-251 777.643V942.613L690.321 638.053L-251 1116.85V1269H-109.555L700.592 650.299L107.379 1269H183.205L700.613 690.082L386.677 1269H528.841C584.866 1111.24 702.663 783.227 721.366 694.672L649.47 1269H821.39L754.397 702.18C773.079 790.291 894.596 1112.81 954.361 1269H1083.57L769.634 690.082L1287.04 1269H1362.87L769.656 650.362L1579.8 1269H1651V1081.1L779.926 638.032L1651 920.025V765.207L787.872 611.848L1651 648.565V592.686H787.872L1651 467.013V328.206L778.933 569.696L1651 129.015Z" fill="#FBE8E8"/>
</svg>
