<svg width="67" height="73" viewBox="0 0 67 73" fill="none" xmlns="http://www.w3.org/2000/svg">
<g clip-path="url(#clip0_508_919)">
<path d="M63.1567 56.2527C63.0912 55.1506 62.8332 54.0685 62.3943 53.0554C61.9443 52.034 61.347 51.0842 60.6213 50.2362C59.1205 48.5342 57.2911 47.1532 55.243 46.176C53.1852 45.166 50.9973 44.4461 48.7419 44.0365C44.184 43.1874 39.4925 43.3895 35.0245 44.6275C32.7915 45.2424 30.6565 46.1696 28.6829 47.3817C27.6982 47.9876 26.7723 48.6841 25.9169 49.462C25.0618 50.2353 24.3001 51.1061 23.6475 52.0566L23.4051 52.4112L23.1865 52.7835C23.0328 53.0258 22.9087 53.2859 22.7787 53.54C22.7077 53.67 22.6545 53.8 22.5954 53.9301L22.4241 54.3261L22.2763 54.728C22.229 54.8639 22.1758 54.9998 22.1404 55.1358C21.8031 56.2335 21.6571 57.381 21.7089 58.5282C21.7825 59.6735 22.0545 60.7974 22.5127 61.8497C22.5659 61.9856 22.6309 62.1097 22.6959 62.2397L22.885 62.6298L23.0978 63.0022C23.1747 63.1263 23.2397 63.2504 23.3224 63.3686C23.4879 63.605 23.6356 63.8532 23.8129 64.0778L24.073 64.4206C24.1616 64.5329 24.2621 64.6393 24.3508 64.7456C25.1066 65.6181 25.9614 66.3995 26.898 67.0742C27.8271 67.7539 28.8162 68.3474 29.8531 68.8472C31.9506 69.8271 34.1746 70.5094 36.4606 70.8745C38.7435 71.2474 41.0615 71.3584 43.3696 71.2054C45.6729 71.0581 47.9516 70.6456 50.1603 69.9761C51.2593 69.649 52.337 69.2542 53.3873 68.7941C54.4262 68.3176 55.4313 67.7706 56.3955 67.157C58.3231 65.9565 59.9877 64.3784 61.2891 62.5175C61.6009 62.0552 61.8793 61.5713 62.1225 61.0695C62.3623 60.5728 62.56 60.0568 62.7135 59.527C63.0531 58.4702 63.2031 57.3617 63.1567 56.2527Z" fill="#0F75BD"/>
<path d="M63.7242 55.9809C64.0492 61.7551 59.0493 66.9974 51.6379 69.5742L52.4595 66.9914L61.4665 55.6735L63.6828 55.4962C63.7005 55.644 63.7183 55.8154 63.7242 55.9809Z" fill="#17162B"/>
<path d="M64.3212 56.1877C64.3848 57.4268 64.2288 58.6673 63.8602 59.852C63.682 60.4394 63.4546 61.0108 63.1805 61.5601C62.9104 62.1088 62.6023 62.638 62.2586 63.144C61.9159 63.6466 61.5408 64.1264 61.1357 64.5801C60.7363 65.0347 60.3121 65.4668 59.865 65.8745C59.6463 66.0813 59.4099 66.2704 59.1853 66.4655C58.9607 66.6605 58.7184 66.8496 58.4702 67.021C57.9974 67.3875 57.495 67.7184 56.9926 68.0435C55.9756 68.672 54.9127 69.2233 53.813 69.6924C52.7175 70.1555 51.5944 70.5502 50.4501 70.8744C45.8659 72.1478 41.0528 72.366 36.3722 71.5127C34.0446 71.0918 31.7856 70.3541 29.6582 69.3201C27.5125 68.2944 25.5982 66.8425 24.0318 65.0529C23.9372 64.9406 23.8368 64.8284 23.7481 64.7161L23.4821 64.3555C23.293 64.1251 23.1394 63.8709 22.9739 63.6227C22.8911 63.4986 22.8202 63.3685 22.7434 63.2385L22.5247 62.8544L22.3238 62.4525C22.2647 62.3166 22.1938 62.1865 22.1406 62.0447C21.1795 59.8335 21.0411 57.3514 21.7505 55.0471C21.7859 54.8993 21.845 54.7634 21.8923 54.6216L22.0401 54.2019L22.2174 53.7941C22.2719 53.6544 22.3351 53.5182 22.4065 53.3863C22.5424 53.1204 22.6665 52.8544 22.8261 52.6003L23.0507 52.2161C23.1275 52.092 23.2162 51.9679 23.2989 51.8438C24.656 49.8909 26.3977 48.2357 28.4171 46.9797C30.4161 45.7067 32.5795 44.7125 34.8474 44.0247C39.4038 42.6566 44.2115 42.3413 48.9076 43.1027C51.2646 43.4903 53.5561 44.2044 55.7161 45.2244C56.8016 45.7426 57.8381 46.3578 58.813 47.0625C59.7988 47.7696 60.6992 48.5887 61.4962 49.5034C62.2976 50.4346 62.9586 51.4779 63.4583 52.6003C63.9508 53.7374 64.2427 54.9511 64.3212 56.1877ZM63.1392 56.2527C63.0737 55.1506 62.8156 54.0685 62.3768 53.0554C61.9268 52.034 61.3294 51.0842 60.6037 50.2362C59.1029 48.5342 57.2735 47.1531 55.2255 46.176C53.1676 45.166 50.9798 44.446 48.7244 44.0365C44.1665 43.1874 39.4749 43.3895 35.0069 44.6275C32.7739 45.2423 30.639 46.1696 28.6653 47.3816C27.6807 47.9876 26.7547 48.6841 25.8994 49.462C25.0443 50.2353 24.2826 51.1061 23.6299 52.0566L23.3876 52.4111L23.1689 52.7835C23.0153 53.0258 22.8911 53.2859 22.7611 53.54C22.6902 53.67 22.637 53.8 22.5779 53.9301L22.4065 54.3261L22.2587 54.7279C22.2115 54.8639 22.1583 54.9998 22.1228 55.1357C21.7855 56.2334 21.6396 57.381 21.6914 58.5282C21.765 59.6735 22.0369 60.7974 22.4952 61.8497C22.5483 61.9856 22.6134 62.1097 22.6784 62.2397L22.8675 62.6298L23.0803 63.0021C23.1571 63.1263 23.2221 63.2504 23.3048 63.3686C23.4703 63.605 23.6181 63.8532 23.7954 64.0778L24.0554 64.4205C24.1441 64.5328 24.2445 64.6393 24.3332 64.7456C25.089 65.6181 25.9439 66.3995 26.8805 67.0742C27.8095 67.7539 28.7986 68.3474 29.8355 68.8472C31.933 69.8271 34.157 70.5094 36.4431 70.8744C38.726 71.2473 41.044 71.3584 43.352 71.2054C45.6553 71.0581 47.934 70.6456 50.1428 69.9761C51.2418 69.649 52.3195 69.2542 53.3697 68.7941C54.4086 68.3176 55.4137 67.7706 56.378 67.1569C58.3055 65.9565 59.9701 64.3784 61.2716 62.5175C61.5833 62.0552 61.8618 61.5713 62.1049 61.0695C62.3448 60.5728 62.5425 60.0568 62.6959 59.527C63.0416 58.4713 63.1976 57.3628 63.1569 56.2527H63.1392Z" fill="#17162B"/>
<path d="M63.6057 53.8178C64.0371 61.5364 54.9296 68.3272 43.2689 68.9773C31.6082 69.6274 21.8092 63.8887 21.4014 56.1641C20.9936 48.4396 30.0539 41.6784 41.7146 41.0046C48.0443 40.6559 53.8244 42.1866 57.8552 44.8876C60.4852 46.6606 62.3705 48.9183 63.1743 51.4833C63.4171 52.2399 63.5621 53.0244 63.6057 53.8178Z" fill="#0F75BD"/>
<path d="M63.978 53.7942C64.0405 54.9779 63.8985 56.1635 63.5584 57.2989C63.2129 58.4269 62.6967 59.4952 62.0277 60.4668C60.6891 62.3856 58.9763 64.014 56.9922 65.254C55.0327 66.4944 52.9158 67.4664 50.6979 68.1441C48.4842 68.8141 46.2025 69.2343 43.8954 69.397C43.3043 69.4502 42.7133 69.462 42.1696 69.4856H41.3008C41.0112 69.4856 40.7098 69.4856 40.4379 69.4856C39.2825 69.448 38.1302 69.3455 36.9864 69.1783C34.6946 68.8446 32.4544 68.221 30.3197 67.3225C29.252 66.867 28.224 66.3234 27.2465 65.6973C26.2595 65.0695 25.3422 64.3384 24.5101 63.5164C23.6706 62.6936 22.9486 61.7588 22.3647 60.7386C22.07 60.2279 21.817 59.6943 21.6082 59.1429C21.5609 59.001 21.5137 58.8592 21.4723 58.7233C21.4209 58.584 21.3774 58.4419 21.3422 58.2977L21.2359 57.8663C21.2359 57.7954 21.1945 57.7245 21.1827 57.6476L21.1472 57.429C20.9353 56.2564 20.9353 55.0554 21.1472 53.8829C21.3668 52.7287 21.7656 51.6159 22.3292 50.585C22.8976 49.5643 23.5948 48.6208 24.4037 47.7777C25.2036 46.9388 26.0824 46.1788 27.0278 45.5082C28.9238 44.1687 31.0042 43.1116 33.2039 42.3699C34.2905 41.9929 35.3975 41.6772 36.5195 41.4243C37.6418 41.1803 38.7762 40.9948 39.9178 40.8688L40.7748 40.786L41.6318 40.7269L42.4946 40.6915H42.9202H43.3516C44.5005 40.6835 45.6489 40.7408 46.7913 40.8628C47.075 40.8628 47.3823 40.916 47.6483 40.9574L48.4993 41.0874C48.783 41.1288 49.0904 41.1879 49.3445 41.2411C49.5986 41.2943 49.9355 41.3534 50.1896 41.4125C51.3157 41.6568 52.4235 41.9787 53.5052 42.3758C54.5893 42.7715 55.6422 43.2476 56.6553 43.8002L57.0336 44.013L57.4059 44.2316L58.1388 44.6985C58.6175 45.0177 59.0785 45.3723 59.5277 45.7387C60.4305 46.48 61.2367 47.3318 61.9272 48.2741C62.0158 48.3923 62.1045 48.5047 62.1813 48.6288L62.4236 49.0011C62.5714 49.2493 62.725 49.5035 62.8551 49.7635C63.1278 50.2868 63.3552 50.8326 63.5347 51.3947V51.4361V51.4834V51.3947C63.784 52.1724 63.9329 52.9788 63.978 53.7942ZM63.2274 53.8356C63.1902 53.0753 63.0571 52.3227 62.8314 51.5957V51.5484V51.507V51.5957C62.6635 51.0715 62.454 50.5616 62.205 50.0708C62.0868 49.8285 61.9449 49.5921 61.809 49.3498L61.5844 49.0011C61.5135 48.8829 61.4307 48.7765 61.348 48.6642C60.6995 47.7637 59.9411 46.9477 59.0903 46.2352C58.6589 45.8746 58.2215 45.5318 57.7605 45.2186C57.53 45.059 57.2877 44.9172 57.0572 44.7635L56.6967 44.5448L56.3303 44.338C55.3513 43.7899 54.3318 43.3177 53.2806 42.9255C52.2263 42.5323 51.1462 42.2124 50.0478 41.968C48.9523 41.7088 47.8407 41.5232 46.7204 41.4125C45.5994 41.2953 44.4728 41.2401 43.3457 41.247H42.9202H42.5005C42.2169 41.247 41.9095 41.247 41.6554 41.2825L40.8102 41.3475C40.5266 41.3475 40.2192 41.4066 39.971 41.4302C38.8507 41.5578 37.738 41.7453 36.6377 41.9917C35.5398 42.2454 34.4566 42.5591 33.393 42.9314C31.2692 43.6679 29.2627 44.707 27.4356 46.0165C26.5312 46.6755 25.6921 47.4196 24.9297 48.2387C24.1689 49.0457 23.5153 49.9476 22.9853 50.9219C22.4548 51.8884 22.0836 52.9341 21.886 54.0188C21.691 55.0955 21.691 56.1986 21.886 57.2753L21.9214 57.4762C21.9214 57.5471 21.9569 57.6122 21.9687 57.6772L22.0692 58.0732C22.0987 58.2091 22.1519 58.3332 22.1933 58.4632C22.2347 58.5933 22.2761 58.7233 22.3233 58.8533C22.5245 59.363 22.7635 59.8569 23.0385 60.3308C23.5972 61.2807 24.2832 62.1496 25.0775 62.9136C26.702 64.4435 28.5956 65.6598 30.6625 66.501C32.7303 67.3624 34.8988 67.9581 37.1164 68.2741C38.2273 68.4307 39.346 68.5254 40.4674 68.5577C40.7452 68.5577 41.0585 68.5577 41.3067 68.5577H42.1459C42.737 68.5577 43.2689 68.5223 43.8244 68.475C46.063 68.3132 48.277 67.9049 50.4261 67.2575C52.5709 66.6233 54.6204 65.7029 56.5194 64.5211C58.4173 63.3602 60.0615 61.8285 61.3539 60.0176C61.985 59.1117 62.4752 58.1153 62.8078 57.0625C63.1349 56.0196 63.2769 54.9275 63.2274 53.8356Z" fill="#17162B"/>
<path d="M63.1746 51.4833L57.0281 58.2267L57.8555 44.8639C60.4855 46.6547 62.3709 48.9183 63.1746 51.4833Z" fill="#17162B"/>
<path d="M24.6047 39.0779L25.3908 53.1972C25.7809 60.1417 33.665 65.3485 43.0385 64.8284C52.4119 64.3083 59.6696 58.2563 59.2854 51.3119L58.4994 37.1926L24.6047 39.0779Z" fill="#BD2E2E"/>
<path d="M43.0682 65.3485C38.6764 65.6713 34.296 64.5866 30.5624 62.2516C27.0872 59.9585 25.066 56.7552 24.865 53.2268L24.0789 39.1075C24.0725 38.9684 24.1208 38.8322 24.2136 38.7283C24.3065 38.6244 24.4364 38.5611 24.5754 38.552L58.4701 36.6666C58.5392 36.6627 58.6084 36.6723 58.6737 36.6951C58.7391 36.718 58.7993 36.7534 58.8509 36.7995C58.9025 36.8457 58.9445 36.9015 58.9745 36.9639C59.0044 37.0263 59.0218 37.094 59.0256 37.1631L59.7998 51.2824C59.9949 54.8285 58.34 58.2209 55.1426 60.8805C51.6956 63.6163 47.4659 65.1815 43.0682 65.3485ZM25.1605 39.5744L25.917 53.1677C26.2893 59.8107 33.9548 64.8048 43.0091 64.3025C52.0635 63.8001 59.1261 57.9845 58.7596 51.3415L58.0032 37.7482L25.1605 39.5744Z" fill="#17162B"/>
<path d="M28.5471 31.7493L22.7256 25.2482C22.7256 25.2482 29.2681 28.0496 30.196 22.6063C31.1239 17.1631 30.3142 5.7802 29.9241 1.8736C32.7196 9.98231 36.3662 18.1738 38.9312 18.422C45.5624 19.078 57.2526 1.92677 57.2526 1.92677C57.2526 1.92677 50.6864 18.5579 53.0387 22.0212C55.5741 25.7742 65.45 20.5082 65.45 20.5082L54.7585 30.9751L28.5471 31.7493Z" fill="#FED312"/>
<path d="M28.4758 31.9857C28.2217 31.7316 27.9735 31.4657 27.7193 31.2056L26.9688 30.3959C26.4723 29.8581 25.9818 29.3085 25.4853 28.7588C24.9889 28.2092 24.5101 27.6477 24.0314 27.0803L23.3222 26.2352C23.0917 25.9456 22.8553 25.6442 22.6307 25.3723L22.1638 24.7813L22.8198 25.1122C23.1077 25.2187 23.4018 25.3075 23.7004 25.3782C24.0019 25.455 24.2915 25.526 24.6047 25.5792C24.9179 25.6324 25.1957 25.6678 25.5089 25.6915C25.8101 25.7092 26.1121 25.7092 26.4132 25.6915C26.9988 25.6643 27.5732 25.5217 28.1035 25.2718C28.2309 25.2082 28.3534 25.1351 28.4699 25.0532L28.6354 24.929L28.7181 24.864L28.795 24.7872L28.9427 24.6394L29.0787 24.4799L29.1437 24.3971L29.2028 24.3085L29.3151 24.1312C29.5974 23.6228 29.78 23.0651 29.8529 22.4882C29.8884 22.1809 29.9298 21.8971 29.9711 21.5721C30.0125 21.247 30.0302 20.9515 30.0598 20.6442C30.1543 19.409 30.2016 18.1619 30.2193 16.9149C30.2371 15.6678 30.2193 14.4149 30.2193 13.1679C30.2193 11.9208 30.172 10.662 30.1307 9.41492C30.0893 8.16788 30.048 6.90903 30.0066 5.65608C30.0066 5.34284 30.0066 5.02962 30.0066 4.71639L29.9711 3.77666L29.9002 1.89132V1.14072L30.1011 1.85586L30.6094 3.15018L31.1177 4.44451C31.4604 5.30739 31.8151 6.16434 32.1815 7.0154C32.8966 8.72343 33.6531 10.4138 34.4864 12.0627C34.912 12.8783 35.3375 13.6939 35.8044 14.4858C36.2548 15.2712 36.7687 16.0184 37.3411 16.7199C37.6115 17.0565 37.9188 17.3617 38.2571 17.63C38.411 17.7484 38.58 17.8457 38.7595 17.9196C38.837 17.9533 38.9184 17.9771 39.0018 17.9905H39.2914C39.7129 17.9963 40.133 17.9405 40.5384 17.8251C40.9598 17.7067 41.3709 17.5545 41.7677 17.37C42.1732 17.1834 42.5678 16.9743 42.9498 16.7435C43.3339 16.5071 43.7122 16.2589 44.0786 15.9929C44.8199 15.4601 45.5321 14.888 46.2122 14.279C47.5833 13.0615 48.8658 11.7376 50.1188 10.3842C51.3717 9.03077 52.5596 7.61233 53.7239 6.17026C54.8882 4.72818 56.023 3.26839 57.1223 1.78494L58.3575 0.0119019L57.5714 2.05091C56.549 4.69865 55.6152 7.37004 54.7878 10.1123C54.3741 11.4776 53.9958 12.8428 53.6708 14.2494C53.3311 15.6221 53.0843 17.0161 52.932 18.422C52.8574 19.115 52.8475 19.8134 52.9025 20.5083C52.9308 20.8426 53.0003 21.1721 53.1093 21.4894C53.1347 21.5667 53.1663 21.6417 53.2039 21.7139C53.2367 21.7853 53.2742 21.8544 53.3162 21.9208C53.405 22.0539 53.5058 22.1786 53.6176 22.2931C54.1057 22.7483 54.7274 23.0342 55.3906 23.1087C56.0749 23.2033 56.769 23.2033 57.4533 23.1087C58.8451 22.9055 60.2106 22.5508 61.5253 22.0508C62.8554 21.5687 64.1525 21.0001 65.4083 20.3487L66.8622 19.4444L65.7097 20.7565C64.8823 21.6962 64.0312 22.6064 63.1802 23.5225L61.8977 24.8759C61.4662 25.3309 61.0289 25.7742 60.5974 26.2234L59.9473 26.8971L59.2086 27.5236L57.8906 28.8534L56.5668 30.1714L55.8989 30.8274L55.5679 31.1583L55.4024 31.3238L55.3611 31.3652C55.3611 31.3652 55.3611 31.3947 55.3079 31.3947H55.2547L55.1838 31.3593H55.1365L55.0774 31.3238L54.9415 31.2233L54.8705 31.2943H54.776L28.4758 31.9857ZM28.8068 31.2115C37.4199 31.0342 46.0703 30.8786 54.7582 30.7446L54.5868 30.8215L65.2783 20.3546L65.5738 20.7624C64.2964 21.4239 62.9777 22.0024 61.6258 22.4941C60.2735 23.0089 58.8681 23.3717 57.4355 23.5756C56.7061 23.6761 55.9664 23.6761 55.237 23.5756C54.8625 23.5184 54.497 23.4132 54.1495 23.2624C53.9733 23.1828 53.8034 23.0899 53.6412 22.9846C53.4798 22.8753 53.3294 22.7506 53.1921 22.6123C53.0552 22.4731 52.9324 22.3206 52.8256 22.1572C52.7719 22.0711 52.7226 21.9824 52.6779 21.8912C52.6319 21.8044 52.5943 21.7133 52.5656 21.6194C52.4441 21.2634 52.3647 20.8945 52.3292 20.5201C52.2739 19.7917 52.2837 19.0599 52.3587 18.3333C52.5162 16.904 52.767 15.4865 53.1093 14.0899C53.4403 12.6951 53.8244 11.318 54.2322 9.95276C55.0675 7.2144 56.0013 4.51345 57.0336 1.84995L57.4769 2.08637C57.2228 2.47644 56.9627 2.86059 56.7027 3.26839C56.4426 3.67619 56.1708 4.0308 55.8989 4.40905C55.3611 5.17145 54.8055 5.92204 54.244 6.66081C53.1093 8.14425 51.9332 9.58634 50.698 10.993C49.4665 12.4057 48.1479 13.74 46.75 14.9882C46.0477 15.6161 45.3139 16.2079 44.5514 16.7613C44.1614 17.039 43.7654 17.305 43.3694 17.5532C42.9593 17.8041 42.535 18.031 42.0987 18.2329C41.654 18.4422 41.1911 18.6104 40.7158 18.7352C40.2239 18.8621 39.7163 18.9178 39.2086 18.9007H39.0136H38.9131H38.8008C38.6543 18.8744 38.5115 18.8307 38.3753 18.7707C38.1258 18.6674 37.8928 18.528 37.6839 18.357C37.2975 18.0437 36.9467 17.6889 36.6377 17.2991C36.0521 16.5538 35.5265 15.7633 35.0657 14.935C34.6047 14.1155 34.1791 13.2802 33.7891 12.4291C33.003 10.7329 32.3056 9.00123 31.6496 7.25774C31.3304 6.38304 31.0586 5.48468 30.7276 4.6218L30.2489 3.26248L29.8352 1.9327L30.0066 1.89132C30.3967 4.37949 30.6508 6.8854 30.8222 9.39721C30.9935 11.909 31.0822 14.4208 31.0349 16.9445C31.0349 17.5768 30.9995 18.2092 30.9758 18.8416C30.9758 19.1548 30.9345 19.474 30.9167 19.7872C30.899 20.1005 30.8754 20.4196 30.8399 20.7388C30.8044 21.0579 30.7749 21.3711 30.7335 21.6844L30.5917 22.63C30.4837 23.2987 30.249 23.9406 29.9002 24.5212C29.5282 25.1125 28.9923 25.5828 28.3576 25.8747C27.7448 26.1506 27.0793 26.2898 26.4073 26.2825C26.0814 26.2808 25.7558 26.2611 25.4321 26.2234C25.107 26.1761 24.7938 26.117 24.4806 26.0461C23.8563 25.9077 23.2467 25.7098 22.6602 25.455L22.8494 25.1891L23.5822 25.9811L24.3269 26.7612L25.8163 28.2978L27.3056 29.7931L28.0444 30.5319L28.8068 31.2115Z" fill="#17162B"/>
<path d="M34.2269 14.3085C34.0968 15.4196 33.9136 16.5189 33.7481 17.6123C33.7127 17.8901 33.6713 18.1619 33.624 18.4338L33.5118 19.2553L33.3995 20.0768L33.3108 20.9042C33.1985 21.9976 33.1276 23.1028 33.1217 24.2021C33.1228 25.31 33.1859 26.4169 33.3108 27.5177C33.0103 26.4396 32.83 25.3316 32.773 24.2139C32.7128 23.0942 32.7445 21.9715 32.8675 20.857C32.8971 20.5792 32.9325 20.3014 32.968 20.0236C33.0035 19.7459 33.0448 19.4681 33.0921 19.1962L33.2399 18.3688C33.2872 18.0969 33.3463 17.8251 33.4054 17.5473C33.6418 16.4598 33.9156 15.3802 34.2269 14.3085Z" fill="#17162B"/>
<path d="M37.0693 19.2199C36.8506 19.9587 36.6497 20.6856 36.4783 21.4185C36.3069 22.1513 36.0882 22.8842 35.8873 23.6171C35.6863 24.3499 35.5386 25.0887 35.3908 25.8274C35.3908 25.922 35.3494 26.0166 35.3317 26.1052L35.2845 26.383L35.2312 26.6667L35.1899 26.9445C35.1294 27.3202 35.09 27.6991 35.0717 28.0792C34.9848 27.6912 34.9412 27.2948 34.9417 26.8972V26.6076C34.9417 26.513 34.9417 26.4126 34.9417 26.318C34.9417 26.123 34.9417 25.9338 34.983 25.727C35.0637 24.962 35.198 24.2036 35.3849 23.4575C35.5722 22.7124 35.8011 21.9784 36.0705 21.2589C36.3358 20.5482 36.6703 19.8652 37.0693 19.2199Z" fill="#17162B"/>
<path d="M58.4996 37.1926C58.8246 43.0496 51.502 48.2151 42.1403 48.7411C32.7787 49.2671 24.7882 44.9408 24.4631 39.0839C24.1381 33.2269 31.6025 28.0497 40.9642 27.5296C50.3259 27.0095 58.1686 31.3357 58.4996 37.1926Z" fill="#BD2E2E"/>
<path d="M59.0256 37.1631C59.0512 37.6565 59.0294 38.1513 58.9606 38.6406C58.8907 39.1281 58.7719 39.6073 58.606 40.0709C58.4491 40.5347 58.2513 40.9836 58.015 41.4125C57.7794 41.8361 57.5148 42.2429 57.223 42.63C56.6373 43.3908 55.9671 44.0828 55.2254 44.6926C54.4824 45.2919 53.6918 45.8296 52.8613 46.3002C51.2195 47.223 49.4655 47.9302 47.6427 48.4042C44.0086 49.3515 40.2184 49.5406 36.508 48.9597C34.6517 48.6804 32.8385 48.166 31.112 47.429C29.3429 46.7025 27.7358 45.6317 26.3839 44.2789C26.05 43.9336 25.7418 43.5642 25.4619 43.1737C25.1798 42.7793 24.9307 42.3621 24.7173 41.9267C24.506 41.4862 24.3359 41.0272 24.209 40.5555C24.0839 40.082 24.0087 39.5967 23.9844 39.1075C23.9618 38.6194 23.9895 38.1302 24.0671 37.6477C24.1445 37.1683 24.2672 36.6973 24.4336 36.2411C24.5959 35.7909 24.7935 35.3542 25.0246 34.935C25.2666 34.5226 25.5372 34.1276 25.8343 33.753C26.4344 33.0047 27.123 32.3319 27.8851 31.7494C28.6271 31.1627 29.418 30.6407 30.2491 30.1891C31.8838 29.2963 33.6228 28.6094 35.4264 28.1442C36.3244 27.912 37.2338 27.7266 38.151 27.5887C39.0671 27.4527 39.9831 27.3523 40.911 27.305C41.8389 27.2577 42.7609 27.2518 43.6829 27.305C45.5348 27.3858 47.3732 27.6611 49.1675 28.1265C49.6167 28.2447 50.0599 28.3747 50.5032 28.5225C50.9465 28.6702 51.3838 28.8239 51.8152 29.0012C52.6859 29.3488 53.5243 29.772 54.3211 30.266C55.1335 30.7688 55.8852 31.3637 56.5611 32.039C56.9025 32.3779 57.2185 32.7413 57.5067 33.1265C57.7944 33.5186 58.0494 33.9337 58.2691 34.3676C58.4895 34.8061 58.6657 35.2654 58.7951 35.7388C58.9173 36.2051 58.9945 36.682 59.0256 37.1631ZM57.9736 37.2222C57.9519 36.7974 57.8886 36.3758 57.7845 35.9633C57.6794 35.557 57.537 35.1613 57.3589 34.7813C56.985 33.9954 56.4948 33.2701 55.905 32.63C54.6741 31.3304 53.1977 30.2878 51.5611 29.5627C49.9066 28.8119 48.1565 28.2928 46.3602 28.0201C45.4616 27.8812 44.5559 27.7924 43.6474 27.7542C43.1923 27.7542 42.7373 27.7542 42.2822 27.7542C41.8271 27.7542 41.372 27.7542 40.9169 27.8074C39.1082 27.9055 37.3151 28.1967 35.5683 28.6761C33.8212 29.1605 32.143 29.8656 30.5742 30.7742C29.0167 31.6582 27.6441 32.8341 26.5317 34.2376C26.2662 34.5889 26.0253 34.9582 25.8106 35.3428C25.5992 35.7206 25.4213 36.1161 25.2787 36.5248C25.1355 36.9314 25.0325 37.351 24.9714 37.7778C24.9124 38.2026 24.8946 38.632 24.9182 39.0603C24.9477 39.4878 25.019 39.9114 25.131 40.325C25.2462 40.7321 25.3985 41.1278 25.586 41.5071C25.782 41.8934 26.0094 42.263 26.2657 42.6123C26.5228 42.9653 26.8053 43.2991 27.1109 43.6111C27.7314 44.2389 28.4214 44.7941 29.1676 45.2659C29.9175 45.7501 30.7086 46.1674 31.5316 46.5129C33.1853 47.2133 34.9209 47.7018 36.6971 47.9668C38.4786 48.2336 40.283 48.3148 42.0813 48.2091C43.8788 48.105 45.6611 47.8179 47.4004 47.3522C49.1298 46.8869 50.7938 46.2058 52.3531 45.325C53.8965 44.4654 55.2608 43.3178 56.372 41.9444C56.632 41.5987 56.8708 41.2375 57.0871 40.8628C57.2961 40.4839 57.474 40.0886 57.619 39.6808C57.7607 39.2814 57.8655 38.87 57.9322 38.4515C57.9849 38.044 57.9987 37.6324 57.9736 37.2222Z" fill="#17162B"/>
<path d="M56.5019 42.819V47.488L56.0291 43.3036C55.5648 43.7221 55.0795 44.1166 54.5751 44.4856V52.6239L53.7241 45.1003C53.0681 45.5436 52.5953 45.8213 52.5953 45.8213L52.7076 61.891C52.7076 61.891 49.2088 63.6168 52.8731 61.891C56.5373 60.1653 58.2986 56.1877 58.2986 56.1877C58.2986 56.1877 58.0444 41.7492 58.2335 40.8214C58.0267 40.7682 56.9747 42.3048 56.5019 42.819Z" fill="#17162B"/>
<path d="M51.3163 46.3159L51.0537 62.6672L51.9874 62.6822L52.2499 46.3309L51.3163 46.3159Z" fill="#17162B"/>
<path d="M49.6757 63.2091L49.5398 49.1252L50.9641 63.1382L49.6757 63.2091Z" fill="#17162B"/>
<path d="M50.7807 25.9278C50.691 26.3048 50.5725 26.6743 50.4261 27.033C50.2842 27.3935 50.1305 27.7422 49.9591 28.0791C49.7877 28.416 49.5986 28.7588 49.3681 29.0838C49.167 29.4166 48.9398 29.7328 48.6885 30.0294C48.7781 29.6505 48.8966 29.2791 49.0431 28.9183C49.179 28.5637 49.3386 28.215 49.51 27.8723C49.6814 27.5295 49.8705 27.1985 50.101 26.8675C50.3007 26.5357 50.5281 26.2214 50.7807 25.9278Z" fill="#17162B"/>
<path d="M33.1035 50.0412C33.2737 49.5203 33.5516 49.041 33.9191 48.6346C34.2809 48.2359 34.6897 47.8827 35.1366 47.5825C35.5768 47.2836 36.0485 47.0339 36.5432 46.8379C37.0402 46.6317 37.5669 46.506 38.1035 46.4655C37.7338 46.8316 37.3388 47.1713 36.9214 47.4821C36.5136 47.7894 36.0999 48.0731 35.6803 48.3568C35.2607 48.6405 34.847 48.9123 34.4274 49.1901C34.0078 49.4679 33.5704 49.7457 33.1035 50.0412Z" fill="#BD2E2E"/>
<path d="M33.0266 49.2493C33.2045 48.7333 33.4883 48.2602 33.8599 47.8605C34.2119 47.467 34.6086 47.1159 35.042 46.8144C35.4814 46.516 35.9508 46.2644 36.4427 46.0638C36.9378 45.8539 37.4619 45.7204 37.997 45.6678C37.6113 46.0245 37.2048 46.3581 36.7795 46.6666C36.3658 46.968 35.9462 47.2576 35.5325 47.5354C35.1188 47.8131 34.6992 48.091 34.2796 48.3746L33.0266 49.2493Z" fill="#17162B"/>
<path d="M47.6024 46.1534L46.1328 46.8749L47.542 49.745L49.0115 49.0235L47.6024 46.1534Z" fill="#BD2E2E"/>
<path d="M63.8895 53.1381L59.6755 56.4951L63.068 52.3048L63.8895 53.1381Z" fill="#17162B"/>
<path d="M63.99 55.3485L59.3506 57.7717L63.334 54.3793L63.99 55.3485Z" fill="#17162B"/>
<path d="M35.0422 69.8815C35.4127 69.5735 35.8081 69.2968 36.2243 69.0541C36.643 68.8147 37.0751 68.5996 37.5186 68.4099C37.9603 68.2147 38.4144 68.0489 38.8779 67.9135C39.3478 67.7739 39.8312 67.6847 40.32 67.6475C39.9004 67.9076 39.4749 68.1262 39.0493 68.3449C38.6238 68.5636 38.1864 68.7586 37.7491 68.9359C37.3117 69.1132 36.8685 69.3024 36.4134 69.4619C35.9661 69.6319 35.508 69.7721 35.0422 69.8815Z" fill="#0F75BD"/>
<path d="M34.6936 69.728C35.0313 69.37 35.4079 69.0508 35.8165 68.7764C36.2188 68.4986 36.6416 68.2516 37.0813 68.0377C37.5233 67.8207 37.9842 67.6446 38.4584 67.5117C38.9348 67.3768 39.429 67.315 39.9241 67.3285L38.6179 67.9195L37.3354 68.5105C36.9099 68.7173 36.4784 68.9242 36.0411 69.1015C35.6037 69.2788 35.1664 69.5625 34.6936 69.728Z" fill="#17162B"/>
<path d="M28.0032 67.1392C28.171 66.9319 28.3704 66.7524 28.5942 66.6073C28.7979 66.465 29.0134 66.3404 29.2384 66.2349C29.4649 66.1312 29.7002 66.0481 29.9417 65.9867C30.1942 65.9206 30.4549 65.8908 30.7159 65.898C30.5439 66.0946 30.345 66.2657 30.1249 66.4063C29.9208 66.5446 29.7053 66.6652 29.4807 66.7669C29.2554 66.8699 29.0222 66.9549 28.7833 67.021C28.5299 67.0958 28.2674 67.1356 28.0032 67.1392Z" fill="#0F75BD"/>
<path d="M27.6545 66.9856C27.8287 66.7358 28.0446 66.5178 28.2928 66.3414C28.5374 66.1746 28.7965 66.0302 29.0671 65.91C29.3306 65.7867 29.6033 65.6839 29.8827 65.6026C30.1715 65.5195 30.469 65.4699 30.7692 65.4549C30.5623 65.6802 30.328 65.8787 30.0718 66.0459C29.8308 66.2033 29.5778 66.3416 29.3153 66.4596C29.0571 66.5816 28.7928 66.6901 28.5233 66.7847C28.2391 66.873 27.9487 66.9401 27.6545 66.9856Z" fill="#17162B"/>
<path d="M49.2858 68.2326C49.2348 68.2385 49.1832 68.2385 49.1322 68.2326L47.9856 70.8922C47.9856 70.8922 50.2373 70.5789 50.521 70.047L51.4548 67.6357C50.7464 67.8843 50.0217 68.0838 49.2858 68.2326Z" fill="#17162B"/>
<path d="M47.2378 68.2425L46.179 71.0897L46.9489 71.3761L48.0078 68.5288L47.2378 68.2425Z" fill="#17162B"/>
<path d="M37.146 29.9172C38.2265 29.7489 39.3158 29.6423 40.4084 29.5981C41.505 29.5419 42.6038 29.5419 43.7004 29.5981C44.8031 29.6593 45.9007 29.7916 46.9864 29.994C48.0844 30.1955 49.1608 30.5003 50.2015 30.9042C51.2665 31.3042 52.2633 31.8664 53.1566 32.5709C54.0779 33.2937 54.8218 34.2175 55.3315 35.2718C55.4497 35.5378 55.5502 35.8096 55.6447 36.0933C55.7269 36.3834 55.7842 36.68 55.8161 36.9798C55.8755 37.5594 55.8516 38.1446 55.7452 38.7174C55.6481 39.2886 55.4478 39.8373 55.1542 40.3368C54.8748 40.8308 54.4662 41.2394 53.9722 41.5188C54.6592 40.7153 55.0346 39.6918 55.0301 38.6347C55.049 38.1258 55.0114 37.6164 54.9178 37.1158C54.8744 36.8765 54.8111 36.6413 54.7287 36.4125L54.5927 36.0638L54.4332 35.721C53.9853 34.8062 53.344 33.9995 52.5537 33.3569C52.154 33.0294 51.7269 32.7367 51.2772 32.4822C50.8242 32.2173 50.3543 31.9824 49.8705 31.7789C47.8819 30.9897 45.797 30.4689 43.6708 30.2305C41.5056 29.9764 39.3255 29.8718 37.146 29.9172Z" fill="#BABABA"/>
<path d="M30.2078 48.5518L30.8402 59.9052C31.9869 60.7571 33.2536 61.4342 34.599 61.9146L33.9311 49.9998C32.6336 49.677 31.3825 49.1904 30.2078 48.5518Z" fill="#BABABA"/>
<path d="M35.6921 50.3959C36.2158 50.5402 36.7521 50.6332 37.2938 50.6736L37.9734 62.8604C37.4348 62.8201 36.9051 62.7005 36.4013 62.5057L35.6921 50.3959Z" fill="#BABABA"/>
<path d="M15.1663 52.098C15.5258 52.1882 15.8622 52.3533 16.1534 52.5826C16.6005 52.8784 17.0164 53.219 17.3945 53.5991C17.7411 53.9358 18.0649 54.2951 18.3638 54.6748C18.4908 54.863 18.6034 55.0606 18.7006 55.2658C18.8065 55.4832 18.8954 55.7085 18.9666 55.9396C19.0434 56.17 19.0969 56.4076 19.1262 56.6488C19.1553 56.8764 19.1553 57.1068 19.1262 57.3344C19.1166 57.755 19.0346 58.1709 18.8839 58.5637C18.742 58.9242 18.6061 59.2433 18.482 59.5211C18.3149 59.7984 18.0962 60.0412 17.8377 60.2363C17.523 60.4813 17.1576 60.6529 16.768 60.7386C16.0163 60.939 15.2409 61.0364 14.463 61.0282C13.4936 61.027 12.5257 60.9539 11.5671 60.8095C10.4999 60.6493 9.44531 60.4142 8.41107 60.1062C7.35422 59.7966 6.32443 59.4013 5.33191 58.9242C4.38741 58.4743 3.49214 57.9277 2.66051 57.293C1.90564 56.7284 1.24874 56.0435 0.71609 55.2658C0.35554 54.7624 0.1501 54.1646 0.125076 53.546C0.118511 53.0341 0.212885 52.526 0.402836 52.0507C0.558373 51.704 0.744284 51.3717 0.95839 51.0578C1.17328 50.7251 1.41022 50.4072 1.66761 50.1063C1.92175 49.8108 2.18768 49.5152 2.45364 49.2788C2.70136 49.0459 2.96181 48.8269 3.23378 48.6228C3.48879 48.4677 3.75795 48.3371 4.03759 48.2328C4.27062 48.1446 4.51228 48.0812 4.7586 48.0436C4.99031 48.0171 5.22429 48.0171 5.456 48.0436C5.70221 48.07 5.94683 48.1094 6.18885 48.1618C6.48436 48.2268 6.77988 48.3096 7.09312 48.4101C7.40635 48.5105 7.68412 48.6169 8.00327 48.7292C8.32241 48.8415 8.59428 48.9656 8.85433 49.0956C9.11437 49.2256 9.3567 49.3498 9.56947 49.4739L9.82951 49.6453C9.90188 49.6951 9.96075 49.7621 10.0009 49.8403C10.0385 49.9277 10.0508 50.024 10.0364 50.1181C10.0068 50.2679 9.95711 50.413 9.8886 50.5495C9.74343 50.8461 9.56285 51.1239 9.35079 51.3769C9.16959 51.5842 8.95357 51.7582 8.71249 51.8911C8.47303 52.0186 8.21292 52.1026 7.94418 52.1394C7.63317 52.1858 7.31777 52.1957 7.00445 52.1689C6.73446 52.1422 6.46614 52.1008 6.20068 52.0448C5.81221 51.9485 5.41711 51.8813 5.01865 51.8438C4.87312 51.8171 4.7232 51.8274 4.58271 51.8739C4.44223 51.9204 4.31572 52.0015 4.21488 52.1098C4.06713 52.3285 4.14987 52.6358 4.46901 53.0259C4.87431 53.4965 5.3324 53.9189 5.83425 54.2847C6.47476 54.763 7.1482 55.1956 7.8496 55.5791C8.54492 55.9656 9.26339 56.3091 10.0009 56.6074C10.7013 56.8722 11.4155 57.0991 12.1404 57.2871C12.7853 57.4609 13.4407 57.5932 14.1025 57.6831C14.5975 57.7568 15.0995 57.7707 15.5978 57.7244C16.0056 57.6772 16.2479 57.5471 16.3366 57.3462C16.5257 56.962 16.0115 56.2528 14.9063 55.1594C14.5394 54.8528 14.2947 54.4247 14.2166 53.9529C14.1385 53.4811 14.2323 52.9971 14.4808 52.5885C14.664 52.2044 14.8827 52.0448 15.1663 52.098Z" fill="#46881B"/>
<path d="M19.0613 47.0803C19.0613 47.7954 19.1204 48.4751 19.1795 49.1193C19.217 49.314 19.2348 49.512 19.2326 49.7103C19.2305 49.8414 19.2065 49.9712 19.1617 50.0945C19.1264 50.1829 19.0764 50.2649 19.014 50.3368C18.9531 50.3985 18.8879 50.4557 18.8189 50.5082C18.6732 50.6389 18.517 50.7575 18.352 50.8628L17.761 51.2824C17.5659 51.4079 17.3463 51.4905 17.1168 51.5247C16.8363 51.5539 16.5531 51.5091 16.2953 51.3947C15.8048 51.2351 15.2256 51.0342 14.5577 50.8037C13.8899 50.5732 13.1748 50.2777 12.4183 49.9645C11.6618 49.6512 10.8816 49.3262 10.0838 48.9716C9.28588 48.617 8.50575 48.2564 7.7197 47.8841C6.93365 47.5117 6.22443 47.1276 5.53885 46.7611C4.85328 46.3947 4.23862 46.0342 3.68898 45.7032C3.38756 45.4905 3.23981 45.2836 3.25163 45.1122C3.31957 44.8203 3.46921 44.5539 3.68306 44.3439C3.97321 43.9937 4.28511 43.6621 4.61687 43.351C4.94609 43.031 5.30419 42.7422 5.68661 42.4881C5.93437 42.3193 6.21388 42.2027 6.50813 42.1453C6.74914 42.1475 6.97995 42.2428 7.15231 42.4113C7.74332 42.8545 8.33434 43.3156 9.07311 43.8002C9.81187 44.2848 10.5507 44.7813 11.3485 45.2718C12.1464 45.7624 12.9502 46.247 13.7776 46.7139C14.605 47.1808 15.4088 47.6181 16.1889 48.0259C16.1913 47.5634 16.2229 47.1015 16.2835 46.643C16.3367 46.2174 16.4135 45.7624 16.5081 45.2718C16.5409 45.0475 16.6237 44.8334 16.7504 44.6453C16.8863 44.5015 17.0682 44.4096 17.2646 44.3853C17.4832 44.332 17.7073 44.3042 17.9324 44.3025C18.1291 44.288 18.3267 44.288 18.5234 44.3025C18.6851 44.2904 18.8465 44.3297 18.9844 44.4148C19.0494 44.4739 19.0731 44.6749 19.0613 45.0058C19.0494 45.6737 19.0494 46.3711 19.0613 47.0803Z" fill="#46881B"/>
<path d="M11.6912 34.1016C11.8946 34.1225 12.0825 34.2197 12.2172 34.3734C12.5127 34.6926 12.8615 35.0472 13.2752 35.4491C13.6889 35.851 14.1321 36.2528 14.6227 36.6784C15.1132 37.1039 15.6274 37.5295 16.1652 37.9609C16.703 38.3923 17.2467 38.8061 17.7846 39.2198C18.3224 39.6335 18.8366 40.0058 19.3331 40.3604C19.8295 40.715 20.2846 41.0223 20.6806 41.2942C20.8001 41.3742 20.8911 41.4901 20.9406 41.6252C20.9406 41.806 20.8826 41.9821 20.7751 42.1275C20.6333 42.3521 20.4973 42.5708 20.3614 42.7717C20.233 42.9713 20.0823 43.1558 19.9122 43.3214C19.7846 43.4827 19.6011 43.5902 19.3981 43.6228C19.1719 43.6304 18.9483 43.573 18.7538 43.4573C18.3992 43.2977 17.9442 43.0791 17.3945 42.7954C16.8449 42.5117 16.2479 42.2044 15.6215 41.838C14.995 41.4715 14.3213 41.1051 13.6416 40.6914C12.9619 40.2777 12.3 39.8758 11.6617 39.468C11.0234 39.0602 10.4442 38.6701 9.88863 38.286C9.33308 37.9018 8.88983 37.559 8.49976 37.2576C8.40515 37.193 8.32988 37.1038 8.28199 36.9997C8.23411 36.8956 8.2154 36.7805 8.22788 36.6666C8.33195 36.3913 8.50985 36.15 8.74206 35.9692C9.06833 35.6578 9.4159 35.3694 9.78225 35.1063C10.1387 34.8375 10.514 34.5946 10.9052 34.3794C11.1423 34.2274 11.4113 34.1323 11.6912 34.1016Z" fill="#46881B"/>
<path d="M21.6733 31.7316C22.0516 31.6548 22.4121 31.5779 22.7549 31.4952C23.0977 31.4125 23.4228 31.3238 23.7124 31.2411C24.0019 31.1583 24.2561 31.0756 24.457 31.0047C24.658 30.9337 24.7762 30.9101 24.8235 31.0047C24.8766 31.1557 24.8766 31.3205 24.8235 31.4715C24.7997 31.636 24.7622 31.7981 24.7112 31.9562C24.6521 32.1394 24.593 32.3108 24.522 32.4763C24.4391 32.7417 24.3198 32.9943 24.1674 33.2269C23.9846 33.484 23.7265 33.6781 23.4287 33.7824L22.8377 34.0011C22.5953 34.0957 22.3175 34.1902 22.0043 34.2907C21.6911 34.3912 21.3542 34.4976 20.9996 34.6039C20.645 34.7103 20.2845 34.8049 19.9417 34.8817C20.3968 35.2718 20.8282 35.6264 21.2242 35.9455C21.6201 36.2647 21.9866 36.5366 22.3235 36.8084C22.3723 36.8284 22.4161 36.8589 22.4518 36.8977C22.4876 36.9365 22.5144 36.9827 22.5303 37.033C22.5454 37.1423 22.5268 37.2536 22.4771 37.3521C22.4076 37.4988 22.3224 37.6376 22.223 37.7659L21.8506 38.28C21.6647 38.5867 21.4097 38.8458 21.106 39.0366C20.9716 39.0969 20.824 39.122 20.6772 39.1096C20.5304 39.0972 20.3891 39.0476 20.2667 38.9656C19.9594 38.8119 19.5634 38.5992 19.0847 38.3214C18.606 38.0436 18.08 37.7304 17.5185 37.3699C16.9571 37.0094 16.372 36.6429 15.7455 36.241C15.119 35.8391 14.5634 35.4432 14.0256 35.059C13.4878 34.6748 12.9618 34.2789 12.489 33.9124C12.0162 33.546 11.6202 33.221 11.307 32.9314C11.228 32.8652 11.1702 32.7772 11.1408 32.6784C11.1114 32.5797 11.1116 32.4744 11.1415 32.3758C11.2735 32.1234 11.4665 31.9081 11.7029 31.7493C12.0526 31.4555 12.4197 31.1832 12.8022 30.9337C13.1811 30.6836 13.576 30.4586 13.9843 30.26C14.1793 30.1654 14.3389 30.0886 14.4689 30.0413C14.5711 29.9937 14.6814 29.9656 14.7939 29.9585C14.8762 29.9501 14.9587 29.9734 15.0244 30.0236C15.0995 30.08 15.1653 30.1478 15.2195 30.2245C15.5215 30.6147 15.8451 30.9876 16.1888 31.3415C16.5788 31.7434 17.0162 32.1808 17.5067 32.6536C17.424 32.0626 17.359 31.4715 17.3235 30.8037C17.288 30.1358 17.2821 29.5153 17.2939 28.9006C17.3058 28.286 17.3471 27.7186 17.3944 27.1926C17.4417 26.6666 17.4949 26.2411 17.5303 25.8983C17.5381 25.7007 17.623 25.514 17.7668 25.3782C17.9725 25.2156 18.2071 25.0933 18.4582 25.0177C18.7397 24.9196 19.031 24.8522 19.327 24.8167C19.5938 24.7841 19.8621 24.7664 20.1308 24.7635C20.2904 24.7678 20.4433 24.8285 20.5622 24.9349C20.6748 25.0974 20.7289 25.2933 20.7159 25.4905C20.7308 25.9044 20.721 26.3189 20.6864 26.7316C20.6864 27.2281 20.6155 27.7718 20.5859 28.351C20.5563 28.9302 20.5386 29.533 20.5327 30.1654C20.5268 30.7978 20.5327 31.3947 20.5859 31.9385C20.9287 31.8735 21.2951 31.8143 21.6733 31.7316Z" fill="#46881B"/>
</g>
<defs>
<clipPath id="clip0_508_919">
<rect width="66.625" height="72.0328" fill="white" transform="translate(0.125)"/>
</clipPath>
</defs>
</svg>
