<svg width="67" height="73" viewBox="0 0 67 73" fill="none" xmlns="http://www.w3.org/2000/svg">
<g clip-path="url(#clip0_387_6781)">
<path d="M63.1572 56.2529C63.0917 55.1507 62.8337 54.0686 62.3948 53.0555C61.9448 52.0341 61.3475 51.0843 60.6218 50.2364C59.1209 48.5344 57.2916 47.1533 55.2435 46.1761C53.1857 45.1662 50.9978 44.4462 48.7424 44.0366C44.1845 43.1875 39.493 43.3897 35.025 44.6276C32.792 45.2425 30.657 46.1697 28.6834 47.3818C27.6987 47.9878 26.7727 48.6842 25.9174 49.4621C25.0623 50.2355 24.3006 51.1063 23.648 52.0567L23.4056 52.4113L23.1869 52.7836C23.0333 53.0259 22.9092 53.286 22.7791 53.5401C22.7082 53.6702 22.655 53.8002 22.5959 53.9302L22.4246 54.3262L22.2768 54.7281C22.2295 54.864 22.1763 54.9999 22.1409 55.1359C21.8036 56.2336 21.6576 57.3811 21.7094 58.5283C21.783 59.6736 22.055 60.7975 22.5132 61.8498C22.5664 61.9857 22.6314 62.1098 22.6964 62.2398L22.8855 62.6299L23.0983 63.0023C23.1751 63.1264 23.2402 63.2505 23.3229 63.3687C23.4884 63.6051 23.6361 63.8533 23.8134 64.0779L24.0735 64.4207C24.1621 64.533 24.2626 64.6394 24.3513 64.7458C25.1071 65.6182 25.9619 66.3996 26.8985 67.0743C27.8275 67.754 28.8167 68.3475 29.8536 68.8474C31.9511 69.8272 34.175 70.5095 36.4611 70.8746C38.744 71.2475 41.062 71.3585 43.3701 71.2055C45.6734 71.0583 47.952 70.6458 50.1608 69.9762C51.2598 69.6491 52.3375 69.2543 53.3878 68.7942C54.4267 68.3177 55.4318 67.7707 56.396 67.1571C58.3236 65.9566 59.9882 64.3785 61.2896 62.5176C61.6014 62.0553 61.8798 61.5714 62.1229 61.0696C62.3628 60.5729 62.5605 60.0569 62.714 59.5271C63.0536 58.4704 63.2036 57.3619 63.1572 56.2529Z" fill="#0F75BD"/>
<path d="M63.7239 55.981C64.049 61.7552 59.049 66.9975 51.6377 69.5743L52.4592 66.9916L61.4663 55.6736L63.6826 55.4963C63.7003 55.6441 63.718 55.8155 63.7239 55.981Z" fill="#17162B"/>
<path d="M64.3215 56.1877C64.3851 57.4267 64.229 58.6673 63.8605 59.852C63.6822 60.4394 63.4549 61.0107 63.1808 61.56C62.9106 62.1087 62.6025 62.638 62.2588 63.1439C61.9161 63.6466 61.541 64.1263 61.1359 64.5801C60.7365 65.0346 60.3123 65.4667 59.8652 65.8744C59.6465 66.0813 59.4101 66.2704 59.1856 66.4654C58.961 66.6604 58.7186 66.8496 58.4704 67.021C57.9976 67.3874 57.4952 67.7183 56.9929 68.0434C55.9758 68.672 54.9129 69.2232 53.8132 69.6924C52.7177 70.1554 51.5946 70.5502 50.4504 70.8744C45.8662 72.1478 41.053 72.366 36.3724 71.5127C34.0448 71.0917 31.7859 70.354 29.6585 69.32C27.5128 68.2943 25.5984 66.8424 24.032 65.0529C23.9375 64.9406 23.837 64.8283 23.7483 64.716L23.4824 64.3555C23.2933 64.125 23.1396 63.8709 22.9741 63.6226C22.8914 63.4985 22.8204 63.3685 22.7436 63.2385L22.5249 62.8543L22.324 62.4524C22.2649 62.3165 22.194 62.1865 22.1408 62.0446C21.1798 59.8334 21.0414 57.3513 21.7507 55.047C21.7862 54.8993 21.8453 54.7633 21.8926 54.6215L22.0403 54.2019L22.2176 53.7941C22.2722 53.6544 22.3353 53.5182 22.4067 53.3863C22.5427 53.1203 22.6668 52.8543 22.8264 52.6002L23.051 52.2161C23.1278 52.092 23.2164 51.9678 23.2992 51.8437C24.6563 49.8908 26.3979 48.2356 28.4174 46.9797C30.4163 45.7066 32.5797 44.7124 34.8476 44.0246C39.4041 42.6565 44.2117 42.3413 48.9078 43.1026C51.2648 43.4902 53.5564 44.2043 55.7163 45.2244C56.8019 45.7425 57.8384 46.3577 58.8132 47.0624C59.799 47.7695 60.6994 48.5886 61.4964 49.5033C62.2978 50.4345 62.9589 51.4778 63.4586 52.6002C63.951 53.7373 64.243 54.951 64.3215 56.1877ZM63.1394 56.2527C63.0739 55.1505 62.8159 54.0684 62.377 53.0553C61.927 52.0339 61.3297 51.0841 60.604 50.2362C59.1031 48.5342 57.2738 47.1531 55.2258 46.1759C53.1679 45.166 50.98 44.446 48.7246 44.0364C44.1667 43.1873 39.4751 43.3895 35.0072 44.6274C32.7741 45.2423 30.6392 46.1695 28.6656 47.3816C27.681 47.9876 26.755 48.684 25.8996 49.4619C25.0445 50.2353 24.2828 51.1061 23.6301 52.0565L23.3878 52.4111L23.1692 52.7834C23.0155 53.0257 22.8914 53.2858 22.7614 53.5399C22.6904 53.67 22.6373 53.8 22.5782 53.93L22.4067 54.326L22.259 54.7279C22.2117 54.8638 22.1585 54.9998 22.1231 55.1357C21.7858 56.2334 21.6398 57.3809 21.6916 58.5281C21.7652 59.6735 22.0372 60.7973 22.4954 61.8496C22.5486 61.9855 22.6136 62.1096 22.6786 62.2396L22.8677 62.6297L23.0805 63.0021C23.1573 63.1262 23.2223 63.2503 23.3051 63.3685C23.4706 63.6049 23.6183 63.8531 23.7956 64.0777L24.0557 64.4205C24.1443 64.5328 24.2448 64.6392 24.3334 64.7456C25.0893 65.618 25.9441 66.3994 26.8807 67.0741C27.8097 67.7538 28.7989 68.3473 29.8358 68.8472C31.9333 69.827 34.1572 70.5093 36.4433 70.8744C38.7262 71.2473 41.0442 71.3583 43.3523 71.2054C45.6556 71.0581 47.9342 70.6456 50.143 69.976C51.242 69.6489 52.3197 69.2541 53.37 68.794C54.4089 68.3175 55.414 67.7705 56.3782 67.1569C58.3058 65.9565 59.9704 64.3783 61.2718 62.5174C61.5836 62.0551 61.862 61.5712 62.1052 61.0695C62.3451 60.5727 62.5428 60.0567 62.6962 59.5269C63.0418 58.4712 63.1978 57.3627 63.1572 56.2527H63.1394Z" fill="#17162B"/>
<path d="M63.6062 53.8178C64.0376 61.5365 54.9301 68.3273 43.2694 68.9774C31.6087 69.6275 21.8097 63.8887 21.4019 56.1642C20.9941 48.4396 30.0544 41.6784 41.7151 41.0047C48.0448 40.656 53.8249 42.1867 57.8556 44.8876C60.4857 46.6607 62.371 48.9184 63.1748 51.4834C63.4176 52.2399 63.5625 53.0245 63.6062 53.8178Z" fill="#0F75BD"/>
<path d="M63.978 53.7942C64.0405 54.9778 63.8985 56.1634 63.5584 57.2989C63.2129 58.4268 62.6967 59.4951 62.0277 60.4667C60.6891 62.3856 58.9763 64.014 56.9922 65.2539C55.0327 66.4943 52.9158 67.4663 50.6979 68.144C48.4842 68.814 46.2025 69.2343 43.8954 69.3969C43.3043 69.4501 42.7133 69.4619 42.1696 69.4856H41.3008C41.0112 69.4856 40.7098 69.4856 40.4379 69.4856C39.2825 69.448 38.1302 69.3454 36.9864 69.1783C34.6946 68.8445 32.4544 68.2209 30.3197 67.3225C29.252 66.8669 28.224 66.3233 27.2465 65.6972C26.2595 65.0694 25.3422 64.3383 24.5101 63.5163C23.6706 62.6935 22.9486 61.7588 22.3647 60.7386C22.07 60.2279 21.817 59.6942 21.6082 59.1428C21.5609 59.001 21.5137 58.8592 21.4723 58.7232C21.4209 58.584 21.3774 58.4419 21.3422 58.2977L21.2359 57.8663C21.2359 57.7953 21.1945 57.7244 21.1827 57.6476L21.1472 57.4289C20.9353 56.2564 20.9353 55.0554 21.1472 53.8828C21.3668 52.7286 21.7656 51.6159 22.3292 50.585C22.8976 49.5642 23.5948 48.6207 24.4037 47.7776C25.2036 46.9388 26.0824 46.1788 27.0278 45.5081C28.9238 44.1687 31.0042 43.1115 33.2039 42.3699C34.2905 41.9929 35.3975 41.6772 36.5195 41.4242C37.6418 41.1802 38.7762 40.9948 39.9178 40.8687L40.7748 40.7859L41.6318 40.7269L42.4946 40.6914H42.9202H43.3516C44.5005 40.6835 45.6489 40.7407 46.7913 40.8628C47.075 40.8628 47.3823 40.916 47.6483 40.9574L48.4993 41.0874C48.783 41.1287 49.0904 41.1878 49.3445 41.241C49.5986 41.2942 49.9355 41.3533 50.1896 41.4124C51.3157 41.6568 52.4235 41.9786 53.5052 42.3758C54.5893 42.7714 55.6422 43.2476 56.6553 43.8001L57.0336 44.0129L57.4059 44.2316L58.1388 44.6984C58.6175 45.0176 59.0785 45.3722 59.5277 45.7386C60.4305 46.48 61.2367 47.3318 61.9272 48.2741C62.0158 48.3923 62.1045 48.5046 62.1813 48.6287L62.4236 49.001C62.5714 49.2493 62.725 49.5034 62.8551 49.7634C63.1278 50.2868 63.3552 50.8325 63.5347 51.3946V51.436V51.4833V51.3946C63.784 52.1724 63.9329 52.9787 63.978 53.7942ZM63.2274 53.8355C63.1902 53.0752 63.0571 52.3226 62.8314 51.5956V51.5483V51.5069V51.5956C62.6635 51.0715 62.454 50.5616 62.205 50.0708C62.0868 49.8285 61.9449 49.592 61.809 49.3497L61.5844 49.001C61.5135 48.8828 61.4307 48.7765 61.348 48.6642C60.6995 47.7636 59.9411 46.9476 59.0903 46.2351C58.6589 45.8746 58.2215 45.5318 57.7605 45.2185C57.53 45.059 57.2877 44.9171 57.0572 44.7635L56.6967 44.5448L56.3303 44.3379C55.3513 43.7899 54.3318 43.3176 53.2806 42.9254C52.2263 42.5323 51.1462 42.2124 50.0478 41.968C48.9523 41.7087 47.8407 41.5231 46.7204 41.4124C45.5994 41.2952 44.4728 41.24 43.3457 41.2469H42.9202H42.5005C42.2169 41.2469 41.9095 41.2469 41.6554 41.2824L40.8102 41.3474C40.5266 41.3474 40.2192 41.4065 39.971 41.4302C38.8507 41.5578 37.738 41.7452 36.6377 41.9916C35.5398 42.2454 34.4566 42.5591 33.393 42.9313C31.2692 43.6679 29.2627 44.707 27.4356 46.0164C26.5312 46.6754 25.6921 47.4195 24.9297 48.2386C24.1689 49.0457 23.5153 49.9475 22.9853 50.9218C22.4548 51.8884 22.0836 52.9341 21.886 54.0187C21.691 55.0955 21.691 56.1985 21.886 57.2752L21.9214 57.4762C21.9214 57.5471 21.9569 57.6121 21.9687 57.6771L22.0692 58.0731C22.0987 58.209 22.1519 58.3332 22.1933 58.4632C22.2347 58.5932 22.2761 58.7232 22.3233 58.8532C22.5245 59.3629 22.7635 59.8568 23.0385 60.3308C23.5972 61.2806 24.2832 62.1496 25.0775 62.9135C26.702 64.4434 28.5956 65.6597 30.6625 66.501C32.7303 67.3623 34.8988 67.9581 37.1164 68.274C38.2273 68.4306 39.346 68.5253 40.4674 68.5577C40.7452 68.5577 41.0585 68.5577 41.3067 68.5577H42.1459C42.737 68.5577 43.2689 68.5222 43.8244 68.475C46.063 68.3132 48.277 67.9049 50.4261 67.2575C52.5709 66.6232 54.6204 65.7028 56.5194 64.5211C58.4173 63.3601 60.0615 61.8284 61.3539 60.0176C61.985 59.1116 62.4752 58.1153 62.8078 57.0625C63.1349 56.0196 63.2769 54.9274 63.2274 53.8355Z" fill="#17162B"/>
<path d="M63.1749 51.4834L57.0283 58.2268L57.8558 44.864C60.4858 46.6548 62.3711 48.9184 63.1749 51.4834Z" fill="#17162B"/>
<path d="M24.6045 39.078L25.3906 53.1973C25.7806 60.1417 33.6647 65.3485 43.0382 64.8284C52.4117 64.3084 59.6693 58.2564 59.2852 51.312L58.4991 37.1926L24.6045 39.078Z" fill="#BD2E2E"/>
<path d="M43.068 65.3485C38.6762 65.6713 34.2958 64.5866 30.5621 62.2516C27.087 59.9585 25.0657 56.7552 24.8648 53.2268L24.0787 39.1075C24.0722 38.9684 24.1206 38.8322 24.2134 38.7283C24.3062 38.6244 24.4362 38.5611 24.5752 38.552L58.4698 36.6666C58.5389 36.6627 58.6081 36.6723 58.6735 36.6951C58.7388 36.718 58.799 36.7534 58.8506 36.7995C58.9022 36.8457 58.9442 36.9015 58.9742 36.9639C59.0042 37.0263 59.0216 37.094 59.0254 37.1631L59.7996 51.2824C59.9946 54.8285 58.3398 58.2209 55.1424 60.8805C51.6953 63.6163 47.4656 65.1815 43.068 65.3485ZM25.1603 39.5744L25.9167 53.1677C26.2891 59.8107 33.9546 64.8048 43.0089 64.3025C52.0632 63.8001 59.1258 57.9845 58.7594 51.3415L58.0029 37.7482L25.1603 39.5744Z" fill="#17162B"/>
<path d="M28.5471 31.7493L22.7256 25.2481C22.7256 25.2481 29.2681 28.0495 30.196 22.6063C31.1239 17.163 30.3142 5.78014 29.9241 1.87354C32.7196 9.98225 36.3662 18.1737 38.9312 18.4219C45.5624 19.0779 57.2526 1.92671 57.2526 1.92671C57.2526 1.92671 50.6864 18.5578 53.0387 22.0212C55.5741 25.7741 65.45 20.5082 65.45 20.5082L54.7585 30.9751L28.5471 31.7493Z" fill="#FED312"/>
<path d="M28.4761 31.9858C28.222 31.7317 27.9737 31.4657 27.7196 31.2057L26.969 30.396C26.4726 29.8581 25.982 29.3085 25.4856 28.7589C24.9891 28.2092 24.5104 27.6478 24.0317 27.0804L23.3225 26.2352C23.092 25.9457 22.8555 25.6442 22.631 25.3724L22.1641 24.7813L22.8201 25.1123C23.1079 25.2188 23.402 25.3076 23.7007 25.3783C24.0021 25.4551 24.2917 25.526 24.605 25.5792C24.9182 25.6324 25.1959 25.6679 25.5092 25.6915C25.8103 25.7093 26.1123 25.7093 26.4135 25.6915C26.999 25.6643 27.5734 25.5217 28.1037 25.2719C28.2312 25.2082 28.3537 25.1352 28.4702 25.0532L28.6357 24.9291L28.7184 24.8641L28.7952 24.7873L28.943 24.6395L29.0789 24.48L29.1439 24.3972L29.203 24.3085L29.3153 24.1312C29.5977 23.6228 29.7802 23.0652 29.8532 22.4882C29.8886 22.1809 29.93 21.8972 29.9714 21.5721C30.0127 21.2471 30.0304 20.9516 30.06 20.6442C30.1546 19.409 30.2019 18.162 30.2196 16.9149C30.2373 15.6679 30.2196 14.415 30.2196 13.1679C30.2196 11.9209 30.1723 10.662 30.1309 9.41498C30.0895 8.16794 30.0482 6.90909 30.0068 5.65614C30.0068 5.3429 30.0068 5.02968 30.0068 4.71645L29.9714 3.77672L29.9004 1.89138V1.14078L30.1014 1.85592L30.6096 3.15025L31.1179 4.44457C31.4607 5.30745 31.8153 6.1644 32.1818 7.01546C32.8969 8.72349 33.6534 10.4138 34.4867 12.0627C34.9122 12.8783 35.3378 13.6939 35.8047 14.4859C36.2551 15.2712 36.769 16.0184 37.3413 16.7199C37.6118 17.0565 37.919 17.3618 38.2574 17.6301C38.4113 17.7484 38.5802 17.8458 38.7597 17.9197C38.8372 17.9534 38.9186 17.9772 39.002 17.9906H39.2916C39.7131 17.9963 40.1332 17.9406 40.5387 17.8251C40.96 17.7068 41.3711 17.5546 41.768 17.37C42.1734 17.1835 42.568 16.9744 42.95 16.7436C43.3342 16.5072 43.7124 16.2589 44.0789 15.993C44.8202 15.4602 45.5324 14.8881 46.2124 14.279C47.5836 13.0616 48.8661 11.7377 50.119 10.3842C51.372 9.03083 52.5599 7.61239 53.7242 6.17032C54.8885 4.72824 56.0232 3.26845 57.1225 1.785L58.3578 0.0119629L57.5717 2.05097C56.5492 4.69871 55.6155 7.3701 54.788 10.1124C54.3743 11.4776 53.9961 12.8429 53.671 14.2495C53.3313 15.6222 53.0845 17.0162 52.9322 18.4221C52.8577 19.1151 52.8478 19.8135 52.9027 20.5083C52.931 20.8426 53.0005 21.1721 53.1095 21.4894C53.1349 21.5667 53.1666 21.6418 53.2041 21.714C53.2369 21.7853 53.2745 21.8545 53.3164 21.9209C53.4052 22.054 53.5061 22.1786 53.6178 22.2932C54.1059 22.7483 54.7276 23.0343 55.3909 23.1088C56.0751 23.2033 56.7692 23.2033 57.4535 23.1088C58.8454 22.9056 60.2108 22.5508 61.5256 22.0509C62.8556 21.5687 64.1527 21.0001 65.4085 20.3487L66.8625 19.4445L65.71 20.7565C64.8825 21.6962 64.0315 22.6064 63.1804 23.5225L61.8979 24.8759C61.4665 25.331 61.0291 25.7742 60.5977 26.2234L59.9476 26.8972L59.2088 27.5237L57.8909 28.8534L56.567 30.1714L55.8992 30.8274L55.5682 31.1584L55.4027 31.3239L55.3613 31.3652C55.3613 31.3652 55.3613 31.3948 55.3081 31.3948H55.2549L55.184 31.3593H55.1367L55.0776 31.3239L54.9417 31.2234L54.8708 31.2943H54.7762L28.4761 31.9858ZM28.8071 31.2116C37.4201 31.0343 46.0706 30.8786 54.7585 30.7447L54.5871 30.8215L65.2785 20.3547L65.574 20.7625C64.2967 21.424 62.9779 22.0024 61.6261 22.4941C60.2738 23.009 58.8683 23.3717 57.4358 23.5757C56.7064 23.6762 55.9666 23.6762 55.2372 23.5757C54.8628 23.5185 54.4972 23.4132 54.1497 23.2625C53.9735 23.1828 53.8036 23.09 53.6415 22.9847C53.48 22.8754 53.3296 22.7507 53.1923 22.6123C53.0554 22.4731 52.9327 22.3207 52.8259 22.1572C52.7721 22.0712 52.7228 21.9824 52.6781 21.8913C52.6321 21.8045 52.5945 21.7134 52.5658 21.6194C52.4443 21.2635 52.365 20.8946 52.3294 20.5202C52.2741 19.7918 52.284 19.06 52.3589 18.3334C52.5165 16.9041 52.7672 15.4866 53.1095 14.0899C53.4405 12.6951 53.8247 11.3181 54.2325 9.95282C55.0678 7.21446 56.0016 4.51351 57.0339 1.85001L57.4771 2.08643C57.223 2.4765 56.963 2.86066 56.7029 3.26846C56.4429 3.67625 56.171 4.03086 55.8992 4.40911C55.3613 5.17152 54.8057 5.9221 54.2443 6.66087C53.1095 8.14431 51.9334 9.5864 50.6982 10.993C49.4667 12.4057 48.1482 13.7401 46.7502 14.9883C46.0479 15.6162 45.3141 16.208 44.5517 16.7613C44.1616 17.0391 43.7656 17.305 43.3696 17.5533C42.9596 17.8041 42.5353 18.0311 42.099 18.2329C41.6543 18.4423 41.1914 18.6104 40.716 18.7353C40.2241 18.8621 39.7166 18.9179 39.2089 18.9008H39.0139H38.9134H38.8011C38.6546 18.8744 38.5118 18.8308 38.3756 18.7707C38.126 18.6675 37.8931 18.5281 37.6841 18.357C37.2977 18.0437 36.9469 17.689 36.638 17.2991C36.0524 16.5538 35.5267 15.7633 35.0659 14.9351C34.6049 14.1155 34.1794 13.2802 33.7893 12.4292C33.0032 10.733 32.3059 9.00129 31.6498 7.2578C31.3307 6.3831 31.0588 5.48474 30.7278 4.62186L30.2491 3.26254L29.8354 1.93276L30.0068 1.89138C30.3969 4.37955 30.651 6.88546 30.8224 9.39727C30.9938 11.9091 31.0825 14.4209 31.0352 16.9445C31.0352 17.5769 30.9997 18.2093 30.9761 18.8417C30.9761 19.1549 30.9347 19.4741 30.917 19.7873C30.8992 20.1005 30.8756 20.4197 30.8401 20.7388C30.8047 21.058 30.7751 21.3712 30.7338 21.6844L30.5919 22.6301C30.484 23.2988 30.2492 23.9407 29.9004 24.5213C29.5285 25.1126 28.9925 25.5828 28.3579 25.8747C27.7451 26.1507 27.0796 26.2898 26.4075 26.2825C26.0816 26.2809 25.7561 26.2611 25.4324 26.2234C25.1073 26.1761 24.7941 26.117 24.4808 26.0461C23.8566 25.9078 23.247 25.7099 22.6605 25.4551L22.8496 25.1891L23.5825 25.9811L24.3272 26.7613L25.8165 28.2979L27.3059 29.7932L28.0447 30.5319L28.8071 31.2116Z" fill="#17162B"/>
<path d="M34.2266 14.3086C34.0966 15.4197 33.9134 16.519 33.7479 17.6124C33.7124 17.8902 33.6711 18.162 33.6238 18.4339L33.5115 19.2554L33.3992 20.0769L33.3106 20.9043C33.1983 21.9977 33.1273 23.1029 33.1214 24.2022C33.1226 25.31 33.1857 26.4169 33.3106 27.5177C33.0101 26.4397 32.8297 25.3317 32.7727 24.214C32.7126 23.0943 32.7442 21.9716 32.8673 20.857C32.8968 20.5793 32.9323 20.3015 32.9678 20.0237C33.0032 19.7459 33.0446 19.4682 33.0919 19.1963L33.2396 18.3689C33.2869 18.097 33.346 17.8251 33.4051 17.5473C33.6415 16.4599 33.9153 15.3803 34.2266 14.3086Z" fill="#17162B"/>
<path d="M37.069 19.22C36.8504 19.9587 36.6494 20.6857 36.478 21.4185C36.3066 22.1514 36.088 22.8843 35.887 23.6171C35.6861 24.35 35.5383 25.0887 35.3906 25.8275C35.3906 25.9221 35.3492 26.0166 35.3315 26.1053L35.2842 26.3831L35.231 26.6667L35.1896 26.9445C35.1292 27.3203 35.0897 27.6991 35.0714 28.0793C34.9846 27.6913 34.941 27.2948 34.9414 26.8972V26.6076C34.9414 26.5131 34.9414 26.4126 34.9414 26.3181C34.9414 26.123 34.9414 25.9339 34.9828 25.727C35.0635 24.9621 35.1978 24.2037 35.3847 23.4575C35.572 22.7124 35.8008 21.9785 36.0702 21.259C36.3355 20.5482 36.6701 19.8653 37.069 19.22Z" fill="#17162B"/>
<path d="M58.4998 37.1925C58.8249 43.0495 51.5022 48.2149 42.1406 48.7409C32.7789 49.2669 24.7884 44.9407 24.4634 39.0838C24.1383 33.2268 31.6028 28.0495 40.9645 27.5294C50.3261 27.0094 58.1689 31.3356 58.4998 37.1925Z" fill="#BD2E2E"/>
<path d="M59.0254 37.1631C59.0509 37.6566 59.0292 38.1514 58.9604 38.6407C58.8905 39.1281 58.7716 39.6073 58.6057 40.071C58.4488 40.5348 58.251 40.9837 58.0147 41.4125C57.7792 41.8362 57.5146 42.243 57.2228 42.63C56.6371 43.3909 55.9669 44.0829 55.2251 44.6927C54.4822 45.292 53.6916 45.8296 52.8611 46.3002C51.2193 47.2231 49.4652 47.9303 47.6424 48.4042C44.0083 49.3516 40.2181 49.5407 36.5078 48.9598C34.6515 48.6804 32.8383 48.1661 31.1118 47.4291C29.3427 46.7025 27.7355 45.6318 26.3837 44.279C26.0497 43.9336 25.7416 43.5642 25.4617 43.1738C25.1795 42.7793 24.9305 42.3622 24.717 41.9267C24.5058 41.4863 24.3357 41.0273 24.2088 40.5556C24.0837 40.082 24.0084 39.5968 23.9842 39.1076C23.9616 38.6195 23.9893 38.1303 24.0669 37.6478C24.1443 37.1684 24.267 36.6974 24.4333 36.2412C24.5957 35.7909 24.7933 35.3542 25.0243 34.9351C25.2663 34.5226 25.5369 34.1277 25.834 33.753C26.4342 33.0048 27.1228 32.332 27.8848 31.7495C28.6268 31.1628 29.4177 30.6408 30.2489 30.1892C31.8836 29.2963 33.6226 28.6094 35.4262 28.1443C36.3242 27.9121 37.2336 27.7266 38.1508 27.5887C39.0668 27.4528 39.9829 27.3523 40.9108 27.305C41.8387 27.2578 42.7607 27.2519 43.6826 27.305C45.5346 27.3858 47.3729 27.6612 49.1673 28.1266C49.6164 28.2448 50.0597 28.3748 50.503 28.5225C50.9462 28.6703 51.3835 28.8239 51.815 29.0013C52.6856 29.3489 53.5241 29.7721 54.3209 30.266C55.1333 30.7689 55.8849 31.3638 56.5608 32.0391C56.9023 32.3779 57.2183 32.7414 57.5065 33.1266C57.7942 33.5186 58.0492 33.9337 58.2688 34.3677C58.4893 34.8061 58.6655 35.2654 58.7949 35.7388C58.917 36.2051 58.9942 36.6821 59.0254 37.1631ZM57.9733 37.2223C57.9516 36.7975 57.8883 36.3758 57.7842 35.9634C57.6792 35.5571 57.5367 35.1614 57.3587 34.7814C56.9847 33.9954 56.4946 33.2702 55.9048 32.6301C54.6739 31.3304 53.1974 30.2878 51.5609 29.5627C49.9064 28.8119 48.1562 28.2929 46.3599 28.0202C45.4613 27.8813 44.5557 27.7925 43.6472 27.7542C43.1921 27.7542 42.737 27.7542 42.2819 27.7542C41.8269 27.7542 41.3718 27.7542 40.9167 27.8074C39.1079 27.9056 37.3149 28.1968 35.568 28.6762C33.821 29.1606 32.1428 29.8656 30.574 30.7743C29.0164 31.6583 27.6439 32.8342 26.5314 34.2376C26.266 34.589 26.025 34.9583 25.8104 35.3429C25.599 35.7206 25.421 36.1161 25.2785 36.5249C25.1352 36.9314 25.0323 37.3511 24.9712 37.7778C24.9122 38.2026 24.8943 38.6321 24.9179 39.0603C24.9475 39.4878 25.0188 39.9114 25.1307 40.3251C25.246 40.7322 25.3983 41.1279 25.5858 41.5071C25.7818 41.8935 26.0091 42.2631 26.2655 42.6123C26.5226 42.9653 26.805 43.2992 27.1106 43.6111C27.7312 44.239 28.4212 44.7942 29.1673 45.266C29.9173 45.7501 30.7083 46.1674 31.5314 46.513C33.1851 47.2133 34.9206 47.7018 36.6968 47.9669C38.4784 48.2336 40.2827 48.3148 42.081 48.2092C43.8786 48.1051 45.6608 47.818 47.4001 47.3522C49.1295 46.887 50.7935 46.2059 52.3528 45.3251C53.8963 44.4655 55.2605 43.3179 56.3717 41.9445C56.6318 41.5988 56.8706 41.2376 57.0868 40.8629C57.2958 40.4839 57.4737 40.0886 57.6187 39.6809C57.7604 39.2815 57.8653 38.87 57.932 38.4516C57.9846 38.044 57.9984 37.6324 57.9733 37.2223Z" fill="#17162B"/>
<path d="M56.5016 42.819V47.4881L56.0288 43.3037C55.5646 43.7221 55.0793 44.1166 54.5749 44.4857V52.624L53.7238 45.1004C53.0678 45.5436 52.595 45.8214 52.595 45.8214L52.7073 61.8911C52.7073 61.8911 49.2085 63.6168 52.8728 61.8911C56.5371 60.1653 58.2983 56.1878 58.2983 56.1878C58.2983 56.1878 58.0442 41.7493 58.2333 40.8214C58.0264 40.7682 56.9744 42.3049 56.5016 42.819Z" fill="#17162B"/>
<path d="M51.3163 46.316L51.0537 62.6672L51.9874 62.6822L52.2499 46.331L51.3163 46.316Z" fill="#17162B"/>
<path d="M49.676 63.2091L49.54 49.1252L50.9644 63.1382L49.676 63.2091Z" fill="#17162B"/>
<path d="M50.7807 25.9277C50.691 26.3047 50.5725 26.6742 50.4261 27.0329C50.2842 27.3934 50.1305 27.7422 49.9591 28.079C49.7877 28.4159 49.5986 28.7587 49.3681 29.0838C49.167 29.4165 48.9398 29.7327 48.6885 30.0294C48.7781 29.6505 48.8966 29.279 49.0431 28.9183C49.179 28.5637 49.3386 28.215 49.51 27.8722C49.6814 27.5294 49.8705 27.1984 50.101 26.8675C50.3007 26.5357 50.5281 26.2213 50.7807 25.9277Z" fill="#17162B"/>
<path d="M33.1035 50.0412C33.2737 49.5204 33.5516 49.0411 33.9191 48.6346C34.2809 48.236 34.6897 47.8827 35.1366 47.5826C35.5768 47.2837 36.0485 47.034 36.5432 46.8379C37.0402 46.6317 37.5669 46.506 38.1035 46.4656C37.7338 46.8317 37.3388 47.1714 36.9214 47.4821C36.5136 47.7895 36.0999 48.0731 35.6803 48.3568C35.2607 48.6405 34.847 48.9124 34.4274 49.1902C34.0078 49.468 33.5704 49.7457 33.1035 50.0412Z" fill="#BD2E2E"/>
<path d="M33.0264 49.2493C33.2042 48.7332 33.4881 48.2602 33.8597 47.8604C34.2117 47.4669 34.6084 47.1159 35.0417 46.8143C35.4811 46.5159 35.9506 46.2643 36.4424 46.0637C36.9375 45.8539 37.4616 45.7204 37.9968 45.6677C37.6111 46.0245 37.2045 46.358 36.7793 46.6665C36.3656 46.968 35.946 47.2575 35.5323 47.5353C35.1186 47.8131 34.6989 48.0909 34.2793 48.3746L33.0264 49.2493Z" fill="#17162B"/>
<path d="M47.6024 46.1535L46.1328 46.875L47.542 49.7451L49.0115 49.0236L47.6024 46.1535Z" fill="#BD2E2E"/>
<path d="M63.8897 53.1383L59.6758 56.4952L63.0682 52.3049L63.8897 53.1383Z" fill="#17162B"/>
<path d="M63.99 55.3487L59.3506 57.7718L63.334 54.3794L63.99 55.3487Z" fill="#17162B"/>
<path d="M35.042 69.8815C35.4125 69.5735 35.8078 69.2967 36.224 69.0541C36.6427 68.8147 37.0749 68.5996 37.5183 68.4099C37.96 68.2147 38.4141 68.0488 38.8777 67.9134C39.3476 67.7738 39.831 67.6847 40.3197 67.6475C39.9001 67.9075 39.4746 68.1262 39.0491 68.3449C38.6236 68.5635 38.1862 68.7586 37.7488 68.9359C37.3115 69.1132 36.8682 69.3023 36.4131 69.4619C35.9659 69.6319 35.5078 69.772 35.042 69.8815Z" fill="#0F75BD"/>
<path d="M34.6934 69.728C35.0311 69.37 35.4077 69.0508 35.8163 68.7764C36.2186 68.4986 36.6414 68.2516 37.081 68.0377C37.523 67.8207 37.984 67.6446 38.4581 67.5117C38.9346 67.3768 39.4288 67.315 39.9238 67.3285L38.6177 67.9195L37.3352 68.5105C36.9096 68.7173 36.4782 68.9242 36.0409 69.1015C35.6035 69.2788 35.1662 69.5625 34.6934 69.728Z" fill="#17162B"/>
<path d="M28.0029 67.1392C28.1707 66.9319 28.3702 66.7524 28.5939 66.6073C28.7976 66.465 29.0132 66.3404 29.2381 66.2349C29.4646 66.1312 29.7 66.0481 29.9414 65.9867C30.194 65.9206 30.4547 65.8908 30.7157 65.898C30.5437 66.0946 30.3447 66.2657 30.1246 66.4063C29.9205 66.5446 29.705 66.6652 29.4805 66.7669C29.2551 66.8699 29.0219 66.9549 28.7831 67.021C28.5296 67.0958 28.2672 67.1356 28.0029 67.1392Z" fill="#0F75BD"/>
<path d="M27.6543 66.9856C27.8284 66.7357 28.0444 66.5178 28.2926 66.3414C28.5372 66.1746 28.7963 66.0302 29.0668 65.9099C29.3304 65.7866 29.603 65.6838 29.8824 65.6026C30.1713 65.5194 30.4687 65.4699 30.7689 65.4548C30.562 65.6801 30.3277 65.8787 30.0716 66.0458C29.8305 66.2032 29.5776 66.3415 29.315 66.4596C29.0568 66.5815 28.7925 66.69 28.5231 66.7846C28.2388 66.8729 27.9484 66.9401 27.6543 66.9856Z" fill="#17162B"/>
<path d="M49.2856 68.2327C49.2345 68.2386 49.183 68.2386 49.1319 68.2327L47.9854 70.8922C47.9854 70.8922 50.2371 70.579 50.5208 70.0471L51.4546 67.6357C50.7462 67.8844 50.0215 68.0838 49.2856 68.2327Z" fill="#17162B"/>
<path d="M47.2376 68.2426L46.1787 71.0898L46.9487 71.3762L48.0076 68.529L47.2376 68.2426Z" fill="#17162B"/>
<path d="M37.1455 29.9171C38.226 29.7488 39.3153 29.6423 40.4079 29.598C41.5045 29.5419 42.6033 29.5419 43.6999 29.598C44.8026 29.6593 45.9002 29.7915 46.9859 29.994C48.0839 30.1955 49.1604 30.5002 50.201 30.9042C51.266 31.3041 52.2628 31.8663 53.1561 32.5708C54.0774 33.2936 54.8213 34.2174 55.331 35.2717C55.4492 35.5377 55.5497 35.8096 55.6442 36.0933C55.7264 36.3834 55.7838 36.6799 55.8157 36.9798C55.875 37.5594 55.8511 38.1445 55.7447 38.7174C55.6476 39.2885 55.4473 39.8373 55.1537 40.3367C54.8743 40.8307 54.4657 41.2393 53.9717 41.5188C54.6587 40.7153 55.0341 39.6917 55.0296 38.6346C55.0485 38.1257 55.0109 37.6163 54.9173 37.1157C54.8739 36.8765 54.8106 36.6412 54.7282 36.4124L54.5923 36.0637L54.4327 35.7209C53.9848 34.8061 53.3435 33.9995 52.5532 33.3569C52.1535 33.0293 51.7264 32.7367 51.2767 32.4822C50.8237 32.2172 50.3538 31.9823 49.8701 31.7789C47.8814 30.9896 45.7965 30.4689 43.6703 30.2304C41.5052 29.9764 39.3251 29.8717 37.1455 29.9171Z" fill="#BABABA"/>
<path d="M30.208 48.5518L30.8404 59.9051C31.9872 60.757 33.2539 61.4342 34.5992 61.9146L33.9314 49.9997C32.6339 49.6769 31.3827 49.1903 30.208 48.5518Z" fill="#BABABA"/>
<path d="M35.6924 50.3958C36.216 50.5401 36.7524 50.6331 37.294 50.6735L37.9737 62.8602C37.4351 62.8199 36.9053 62.7004 36.4016 62.5056L35.6924 50.3958Z" fill="#BABABA"/>
<path d="M15.1666 52.0979C15.5261 52.1881 15.8624 52.3533 16.1536 52.5826C16.6008 52.8784 17.0166 53.219 17.3947 53.5991C17.7413 53.9357 18.0651 54.2951 18.364 54.6747C18.4911 54.8629 18.6037 55.0605 18.7009 55.2657C18.8068 55.4831 18.8956 55.7084 18.9668 55.9395C19.0436 56.17 19.0971 56.4076 19.1264 56.6487C19.1555 56.8763 19.1555 57.1067 19.1264 57.3343C19.1168 57.7549 19.0348 58.1708 18.8841 58.5636C18.7423 58.9241 18.6063 59.2433 18.4822 59.5211C18.3151 59.7984 18.0964 60.0411 17.838 60.2362C17.5233 60.4812 17.1578 60.6529 16.7683 60.7385C16.0166 60.939 15.2412 61.0364 14.4633 61.0281C13.4939 61.0269 12.5259 60.9538 11.5673 60.8095C10.5002 60.6492 9.44555 60.4142 8.41131 60.1061C7.35446 59.7966 6.32467 59.4013 5.33215 58.9241C4.38765 58.4743 3.49238 57.9276 2.66076 57.2929C1.90588 56.7283 1.24899 56.0435 0.716334 55.2657C0.355784 54.7624 0.150344 54.1646 0.12532 53.5459C0.118755 53.0341 0.213129 52.5259 0.40308 52.0506C0.558618 51.7039 0.744528 51.3717 0.958634 51.0577C1.17352 50.7251 1.41046 50.4072 1.66786 50.1062C1.92199 49.8107 2.18792 49.5152 2.45388 49.2788C2.70161 49.0458 2.96206 48.8268 3.23402 48.6227C3.48904 48.4676 3.75819 48.3371 4.03783 48.2327C4.27086 48.1445 4.51253 48.0811 4.75885 48.0436C4.99056 48.0171 5.22453 48.0171 5.45624 48.0436C5.70245 48.0699 5.94708 48.1094 6.18909 48.1617C6.4846 48.2268 6.78012 48.3095 7.09336 48.41C7.4066 48.5105 7.68436 48.6168 8.00351 48.7291C8.32266 48.8414 8.59452 48.9655 8.85457 49.0956C9.11462 49.2256 9.35695 49.3497 9.56971 49.4738L9.82976 49.6452C9.90212 49.695 9.96099 49.7621 10.0011 49.8402C10.0387 49.9277 10.051 50.0239 10.0366 50.118C10.0071 50.2679 9.95736 50.413 9.88884 50.5495C9.74368 50.846 9.5631 51.1238 9.35104 51.3769C9.16984 51.5841 8.95381 51.7582 8.71273 51.8911C8.47328 52.0185 8.21317 52.1025 7.94442 52.1393C7.63341 52.1858 7.31801 52.1957 7.00469 52.1688C6.7347 52.1422 6.46638 52.1007 6.20092 52.0447C5.81246 51.9484 5.41735 51.8813 5.0189 51.8438C4.87336 51.817 4.72344 51.8273 4.58296 51.8738C4.44247 51.9203 4.31597 52.0015 4.21513 52.1097C4.06737 52.3284 4.15011 52.6357 4.46926 53.0258C4.87455 53.4964 5.33264 53.9188 5.8345 54.2847C6.475 54.763 7.14844 55.1955 7.84984 55.579C8.54517 55.9656 9.26363 56.309 10.0011 56.6074C10.7016 56.8722 11.4158 57.099 12.1406 57.287C12.7855 57.4609 13.4409 57.5932 14.1028 57.683C14.5977 57.7567 15.0998 57.7706 15.5981 57.7244C16.0059 57.6771 16.2482 57.5471 16.3368 57.3461C16.5259 56.962 16.0117 56.2527 14.9065 55.1594C14.5397 54.8527 14.295 54.4246 14.2169 53.9528C14.1388 53.4811 14.2325 52.997 14.481 52.5885C14.6642 52.2043 14.8829 52.0447 15.1666 52.0979Z" fill="#46881B"/>
<path d="M19.0613 47.0803C19.0613 47.7954 19.1204 48.4751 19.1795 49.1193C19.217 49.314 19.2348 49.512 19.2326 49.7103C19.2305 49.8414 19.2065 49.9712 19.1617 50.0944C19.1264 50.1829 19.0764 50.2648 19.014 50.3367C18.9531 50.3984 18.8879 50.4557 18.8189 50.5081C18.6732 50.6388 18.517 50.7574 18.352 50.8627L17.761 51.2824C17.5659 51.4079 17.3463 51.4904 17.1168 51.5247C16.8363 51.5539 16.5531 51.509 16.2953 51.3947C15.8048 51.2351 15.2256 51.0341 14.5577 50.8036C13.8899 50.5731 13.1748 50.2776 12.4183 49.9644C11.6618 49.6512 10.8816 49.3261 10.0838 48.9715C9.28588 48.6169 8.50575 48.2564 7.7197 47.884C6.93365 47.5117 6.22443 47.1275 5.53885 46.7611C4.85328 46.3947 4.23862 46.0341 3.68898 45.7032C3.38756 45.4904 3.23981 45.2836 3.25163 45.1122C3.31957 44.8203 3.46921 44.5538 3.68306 44.3439C3.97321 43.9936 4.28511 43.662 4.61687 43.351C4.94609 43.031 5.30419 42.7421 5.68661 42.4881C5.93437 42.3193 6.21388 42.2026 6.50813 42.1453C6.74914 42.1475 6.97995 42.2428 7.15231 42.4112C7.74332 42.8545 8.33434 43.3155 9.07311 43.8001C9.81187 44.2848 10.5507 44.7812 11.3485 45.2718C12.1464 45.7623 12.9502 46.2469 13.7776 46.7138C14.605 47.1807 15.4088 47.6181 16.1889 48.0259C16.1913 47.5633 16.2229 47.1014 16.2835 46.6429C16.3367 46.2174 16.4135 45.7623 16.5081 45.2718C16.5409 45.0474 16.6237 44.8333 16.7504 44.6453C16.8863 44.5014 17.0682 44.4095 17.2646 44.3852C17.4832 44.3319 17.7073 44.3041 17.9324 44.3025C18.1291 44.2879 18.3267 44.2879 18.5234 44.3025C18.6851 44.2903 18.8465 44.3296 18.9844 44.4148C19.0494 44.4739 19.0731 44.6748 19.0613 45.0058C19.0494 45.6736 19.0494 46.371 19.0613 47.0803Z" fill="#46881B"/>
<path d="M11.6907 34.1016C11.8941 34.1225 12.082 34.2197 12.2167 34.3734C12.5122 34.6926 12.861 35.0472 13.2747 35.4491C13.6884 35.851 14.1316 36.2528 14.6222 36.6784C15.1127 37.1039 15.6269 37.5295 16.1647 37.9609C16.7025 38.3923 17.2463 38.8061 17.7841 39.2198C18.3219 39.6335 18.8361 40.0058 19.3326 40.3604C19.829 40.715 20.2841 41.0223 20.6801 41.2942C20.7996 41.3742 20.8906 41.4901 20.9401 41.6252C20.9401 41.806 20.8821 41.9821 20.7746 42.1275C20.6328 42.3521 20.4969 42.5708 20.3609 42.7717C20.2325 42.9713 20.0818 43.1558 19.9118 43.3214C19.7841 43.4827 19.6007 43.5902 19.3976 43.6228C19.1714 43.6304 18.9478 43.573 18.7534 43.4573C18.3987 43.2977 17.9437 43.0791 17.394 42.7954C16.8444 42.5117 16.2475 42.2044 15.621 41.838C14.9945 41.4715 14.3208 41.1051 13.6411 40.6914C12.9614 40.2777 12.2995 39.8758 11.6612 39.468C11.0229 39.0602 10.4437 38.6701 9.88814 38.286C9.33259 37.9018 8.88934 37.559 8.49927 37.2576C8.40467 37.193 8.32939 37.1038 8.2815 36.9997C8.23362 36.8956 8.21492 36.7805 8.22739 36.6666C8.33146 36.3913 8.50936 36.15 8.74157 35.9692C9.06784 35.6578 9.41542 35.3694 9.78176 35.1063C10.1383 34.8375 10.5135 34.5946 10.9047 34.3794C11.1418 34.2274 11.4108 34.1323 11.6907 34.1016Z" fill="#46881B"/>
<path d="M21.6736 31.7315C22.0518 31.6546 22.4124 31.5778 22.7552 31.4951C23.0979 31.4123 23.423 31.3237 23.7126 31.241C24.0022 31.1582 24.2563 31.0755 24.4573 31.0045C24.6582 30.9336 24.7764 30.91 24.8237 31.0045C24.8769 31.1556 24.8769 31.3203 24.8237 31.4714C24.8 31.6358 24.7624 31.798 24.7114 31.9561C24.6523 32.1393 24.5932 32.3107 24.5223 32.4762C24.4393 32.7415 24.32 32.9941 24.1677 33.2268C23.9848 33.4839 23.7267 33.678 23.4289 33.7823L22.8379 34.001C22.5956 34.0955 22.3178 34.1901 22.0046 34.2906C21.6913 34.391 21.3544 34.4974 20.9998 34.6038C20.6452 34.7102 20.2847 34.8048 19.9419 34.8816C20.397 35.2717 20.8284 35.6263 21.2244 35.9454C21.6204 36.2645 21.9868 36.5364 22.3237 36.8083C22.3725 36.8283 22.4163 36.8588 22.4521 36.8976C22.4878 36.9364 22.5146 36.9826 22.5306 37.0329C22.5456 37.1422 22.5271 37.2535 22.4774 37.352C22.4079 37.4987 22.3227 37.6374 22.2232 37.7657L21.8509 38.2799C21.6649 38.5866 21.4099 38.8456 21.1062 39.0364C20.9718 39.0967 20.8243 39.1218 20.6774 39.1094C20.5306 39.097 20.3894 39.0475 20.267 38.9655C19.9596 38.8118 19.5637 38.5991 19.0849 38.3213C18.6062 38.0435 18.0802 37.7303 17.5188 37.3698C16.9573 37.0092 16.3722 36.6428 15.7457 36.2409C15.1193 35.839 14.5637 35.443 14.0259 35.0589C13.488 34.6747 12.9621 34.2787 12.4892 33.9123C12.0164 33.5459 11.6205 33.2208 11.3072 32.9312C11.2282 32.865 11.1705 32.7771 11.141 32.6783C11.1116 32.5795 11.1118 32.4743 11.1417 32.3757C11.2737 32.1233 11.4667 31.908 11.7032 31.7492C12.0528 31.4554 12.4199 31.1831 12.8025 30.9336C13.1814 30.6835 13.5762 30.4584 13.9845 30.2599C14.1795 30.1653 14.3391 30.0885 14.4691 30.0412C14.5714 29.9936 14.6816 29.9655 14.7942 29.9584C14.8765 29.95 14.9589 29.9733 15.0247 30.0235C15.0997 30.0799 15.1655 30.1477 15.2197 30.2244C15.5217 30.6145 15.8453 30.9875 16.189 31.3414C16.5791 31.7433 17.0164 32.1806 17.5069 32.6535C17.4242 32.0624 17.3592 31.4714 17.3237 30.8036C17.2883 30.1357 17.2824 29.5152 17.2942 28.9005C17.306 28.2859 17.3474 27.7185 17.3947 27.1925C17.4419 26.6665 17.4951 26.241 17.5306 25.8982C17.5384 25.7006 17.6232 25.5139 17.767 25.3781C17.9728 25.2155 18.2074 25.0932 18.4585 25.0176C18.74 24.9195 19.0313 24.8521 19.3273 24.8166C19.594 24.784 19.8623 24.7662 20.1311 24.7634C20.2906 24.7676 20.4435 24.8284 20.5625 24.9348C20.675 25.0973 20.7292 25.2931 20.7162 25.4904C20.7311 25.9043 20.7212 26.3188 20.6866 26.7315C20.6866 27.228 20.6157 27.7717 20.5861 28.3509C20.5566 28.9301 20.5388 29.5329 20.5329 30.1653C20.527 30.7977 20.533 31.3946 20.5861 31.9383C20.9289 31.8733 21.2953 31.8142 21.6736 31.7315Z" fill="#46881B"/>
</g>
<defs>
<clipPath id="clip0_387_6781">
<rect width="66.625" height="72.0328" fill="white" transform="translate(0.125)"/>
</clipPath>
</defs>
</svg>
