<svg width="40" height="40" viewBox="0 0 40 40" fill="none" xmlns="http://www.w3.org/2000/svg">
<path fill-rule="evenodd" clip-rule="evenodd" d="M11.3143 29.7807L20 21.0919L28.6857 29.7807C28.9777 30.0731 29.4773 30.0731 29.7694 29.7807C29.9231 29.6344 30 29.442 30 29.2342C30 29.0265 29.9154 28.8341 29.7694 28.6955L21.0915 19.999L29.7694 11.3102C29.9154 11.164 30 10.9716 30 10.7638C30 10.556 29.9154 10.3636 29.7694 10.2251C29.4696 9.92496 28.9854 9.92496 28.6857 10.2251L20 18.9139L11.3143 10.2251C11.0146 9.92496 10.5304 9.92496 10.2306 10.2251C10.0846 10.3713 10 10.5637 10 10.7638C10 10.9639 10.0846 11.1563 10.2306 11.3025L18.9085 19.999L10.2306 28.6878C10.0846 28.8341 10 29.0265 10 29.2342C10 29.4343 10.0846 29.6267 10.2306 29.773C10.5304 30.0731 11.0299 30.0731 11.3143 29.7807Z" fill="white"/>
</svg>
